<?xml version="1.0" encoding="utf-8"?>
<!-- Generator: Adobe Illustrator 19.0.0, SVG Export Plug-In . SVG Version: 6.00 Build 0)  -->
<svg version="1.1" id="Слой_1" xmlns="http://www.w3.org/2000/svg" xmlns:xlink="http://www.w3.org/1999/xlink" x="0px" y="0px"
	 viewBox="-109 336.7 391.3 120.3" style="enable-background:new -109 336.7 391.3 120.3;" xml:space="preserve">
<style type="text/css">
	.st0{fill:#A5D05E;}
	.st1{fill:url(#SVGID_1_);}
	.st2{opacity:0.5;fill:url(#SVGID_2_);enable-background:new    ;}
	.st3{fill:#50A0C5;}
	.st4{opacity:0.5;fill:#FFFFFF;enable-background:new    ;}
	.st5{fill:url(#SVGID_3_);}
	.st6{fill:url(#SVGID_4_);}
	.st7{fill:#93B250;}
	.st8{fill:#9FCB41;}
	.st9{fill:#DEE99D;}
	.st10{fill:#C2D956;}
	.st11{fill:#EDB2C9;}
	.st12{fill:#F2A5C6;}
	.st13{fill:url(#SVGID_5_);}
	.st14{fill:url(#SVGID_6_);}
	.st15{fill:url(#SVGID_7_);}
	.st16{fill:#F4D5E1;}
	.st17{fill:#E86F97;}
	.st18{fill:url(#SVGID_8_);}
	.st19{fill:url(#SVGID_9_);}
	.st20{fill:url(#SVGID_10_);}
	.st21{fill:url(#SVGID_11_);}
	.st22{fill:url(#SVGID_12_);}
	.st23{fill:url(#SVGID_13_);}
	.st24{fill:url(#SVGID_14_);}
	.st25{fill:url(#SVGID_15_);}
	.st26{fill:url(#SVGID_16_);}
	.st27{fill:url(#SVGID_17_);}
	.st28{fill:url(#SVGID_18_);}
	.st29{fill:url(#SVGID_19_);}
	.st30{fill:url(#SVGID_20_);}
	.st31{opacity:0.5;fill:url(#SVGID_21_);enable-background:new    ;}
	.st32{fill:url(#SVGID_22_);}
	.st33{fill:url(#SVGID_23_);}
	.st34{fill:url(#SVGID_24_);}
	.st35{fill:#C392BE;}
	.st36{fill:url(#SVGID_25_);}
	.st37{fill:url(#SVGID_26_);}
	.st38{fill:url(#SVGID_27_);}
	.st39{fill:url(#SVGID_28_);}
	.st40{fill:url(#SVGID_29_);}
	.st41{fill:url(#SVGID_30_);}
	.st42{fill:url(#SVGID_31_);}
	.st43{fill:url(#SVGID_32_);}
	.st44{fill:url(#SVGID_33_);}
	.st45{fill:url(#SVGID_34_);}
	.st46{fill:url(#SVGID_35_);}
	.st47{fill:url(#SVGID_36_);}
	.st48{fill:#FAEFA6;}
	.st49{fill:#FBE066;}
	.st50{fill:#F8CF7F;}
	.st51{fill:#D7A244;}
	.st52{fill:url(#SVGID_37_);}
	.st53{opacity:0.5;fill:url(#SVGID_38_);enable-background:new    ;}
	.st54{fill:url(#SVGID_39_);}
	.st55{fill:url(#SVGID_40_);}
	.st56{fill:url(#SVGID_41_);}
	.st57{fill:#34783B;}
	.st58{fill:#00B5D2;}
	.st59{fill:#F5B0CE;}
</style>
<g>
	<g>
		<path class="st0" d="M-76.8,392c0,0-5.6-3.2-7-3.4c-1.4-0.2-7.9,0.2-7.9,0.5s0.8,0.5,0.8,0.6c0,0.2-6.2,3.5-6.9,3.4
			c-0.4-0.1,2,1.4,5.2,1.9c3.5,0.5,7.8-0.1,7.8,0.1c0.1,0.4-3.4,1.6-3.3,2s1.9,1.4,3.2,1.1c1.3-0.3,8.3-4.3,8.3-4.3L-76.8,392z"/>
		<g>
			
				<linearGradient id="SVGID_1_" gradientUnits="userSpaceOnUse" x1="-53.588" y1="628.4156" x2="-53.588" y2="584.1067" gradientTransform="matrix(0.9828 -0.1848 -0.1848 -0.9828 95.4458 1014.1428)">
				<stop  offset="0" style="stop-color:#50A0C5"/>
				<stop  offset="0.4743" style="stop-color:#BBE4ED"/>
				<stop  offset="0.9565" style="stop-color:#50A0C5"/>
			</linearGradient>
			<path class="st1" d="M-61.3,443.5l-7.5-39.7c-1.2,1.3-3.8,1.9-4.6,2l0,0h-0.1c-0.1,0-0.1,0-0.1,0l0,0c-0.8,0.2-3.4,0.6-5-0.2
				l7.5,39.7c0,0,1.4,5.7,6.2,4.8C-60.3,449.3-61.3,443.5-61.3,443.5z"/>
			
				<linearGradient id="SVGID_2_" gradientUnits="userSpaceOnUse" x1="-51.7211" y1="604.5807" x2="-46.486" y2="589.5136" gradientTransform="matrix(0.9828 -0.1848 -0.1848 -0.9828 95.4458 1014.1428)">
				<stop  offset="0" style="stop-color:#7CAEDD"/>
				<stop  offset="0.6403" style="stop-color:#BBE4ED"/>
				<stop  offset="0.9012" style="stop-color:#A0B0DA"/>
			</linearGradient>
			<path class="st2" d="M-73.4,406.4c-1.4,0.3-2.8,0.3-3.9,0.1l6.9,36.6c0,0,1.3,5.4,4.9,4.7c3.6-0.7,2.7-6.2,2.7-6.2l-6.9-36.6
				C-70.7,405.7-72,406.2-73.4,406.4z"/>
			<path class="st0" d="M-69.7,415.9c-0.4-2.2-1.2-6-2.2-10.2c-0.5,0.1-0.9,0.3-1.4,0.4c-0.2,0-0.4,0.1-0.6,0.1
				c2.9,12.8,5.4,26.4,5.5,27.1c0.2,1.4,1.6-1.8,2.1-3C-65.9,429.2-68.5,423.7-69.7,415.9z"/>
			
				<ellipse transform="matrix(-0.1848 -0.9828 0.9828 -0.1848 -497.5984 429.6544)" class="st3" cx="-70.6" cy="421.2" rx="1.8" ry="3.9"/>
			<g>
				<path class="st4" d="M-70.6,405.6l6.8,36.3c0,0,0.9,5-2.2,6c0.2,0,0.3,0,0.5-0.1c3.6-0.7,2.7-6.2,2.7-6.2l-6.9-36.6
					C-70,405.2-70.3,405.4-70.6,405.6z"/>
			</g>
			<g>
				<path class="st4" d="M-72.9,405.9l4.4,35.1l0,0l-8.5-35.3C-76.1,405.6-73.7,406-72.9,405.9z"/>
			</g>
			
				<linearGradient id="SVGID_3_" gradientUnits="userSpaceOnUse" x1="-53.2962" y1="629.5688" x2="-54.0623" y2="636.7193" gradientTransform="matrix(0.9828 -0.1848 -0.1848 -0.9828 95.4458 1014.1428)">
				<stop  offset="1.185770e-002" style="stop-color:#BBE4ED"/>
				<stop  offset="0.9565" style="stop-color:#50A0C5"/>
			</linearGradient>
			<path class="st5" d="M-80.7,404.1c-0.4-2,2.3-4.1,6-4.8c3.7-0.7,7,0.3,7.4,2.3s-2.3,4.1-6,4.8C-77.1,407.1-80.4,406.1-80.7,404.1
				z"/>
			
				<linearGradient id="SVGID_4_" gradientUnits="userSpaceOnUse" x1="-53.534" y1="634.9292" x2="-53.6617" y2="630.2046" gradientTransform="matrix(0.9828 -0.1848 -0.1848 -0.9828 95.4458 1014.1428)">
				<stop  offset="0" style="stop-color:#59BEE2"/>
				<stop  offset="0.9565" style="stop-color:#50A0C5"/>
			</linearGradient>
			<path class="st6" d="M-79.1,403.2c-0.2-1.2,1.8-2.6,4.5-3.2s5.2,0.1,5.4,1.3c0.2,1.2-1.8,2.6-4.5,3.2
				C-76.5,405-78.9,404.4-79.1,403.2z"/>
		</g>
		<g>
			<path class="st0" d="M-72.4,404.2c-2.4-9.4-6.1-23.5-6.1-23.5s-5.7-4.2-2.1,1.6c1.4,2.2,4.3,13.9,6.3,22.4
				C-73.9,404.6-72.9,404.3-72.4,404.2z"/>
		</g>
		<g>
			<path class="st7" d="M-83.2,350.2c0,0-1.6,1.5-2.9,2c-1.4,0.6-2.5,1.1-2.5,1.1l0.5-1.9l2.4-2.3L-83.2,350.2z"/>
			<path class="st8" d="M-85.1,348c0,0-0.1,1.4-1.4,2.3c-1.2,0.9-3.8,2.5-3.8,2.5l-0.7-0.9l4.2-4L-85.1,348z"/>
			<path class="st0" d="M-90.8,352.4c0,0,2.8-2.2,2.7-1.1c0,1.2-1.4,3.9-1.4,3.9L-90.8,352.4z"/>
			<path class="st9" d="M-82.9,353.9c0,0-0.9-1.2-2.2-1.4c-1.4-0.2-4.6,0.6-4.8,1.7s1.5,2.6,3.1,2.3
				C-85.2,356.2-82.9,353.9-82.9,353.9z"/>
			<path class="st9" d="M-79.5,347.5c0,0-1.8,2.9-2.6,2.8c-0.8-0.1-3.5-0.3-3.7-1.2c-0.2-0.9-0.6-1.3,0.3-2.1
				C-84.6,346.2-79.5,347.5-79.5,347.5z"/>
			<path class="st10" d="M-84.5,345.8c0,0-1.1,2.1-2.5,3.2s-4.3,3-4.3,3l-1.3-3.5L-84.5,345.8z"/>
			<path class="st11" d="M-74.9,349.4l-5.4-2.5c0,0-1.3,0.5-2,2.9c-0.8,2.3-1,4-1.1,4.5S-74.9,349.4-74.9,349.4z"/>
			<path class="st12" d="M-82.6,356.8c0,0-1.5-1.8-4.3-1.9s-6.3,1.2-6.8,1.8c-0.4,0.6,0.5,4.2,3.1,4.6s6.5-0.1,8.1-1.8
				C-80.7,357.8-82.6,356.8-82.6,356.8z"/>
			<path class="st11" d="M-92.1,348.3c0,0-0.2,0.2,0,1s2.4,3.9,2.4,5.2c0.1,1.8-1.2,4.4-1.2,4.4s-4.1-0.8-4.5-5.4
				C-95.8,348.8-92.1,348.3-92.1,348.3z"/>
			
				<linearGradient id="SVGID_5_" gradientUnits="userSpaceOnUse" x1="-77.9949" y1="446.5314" x2="-92.9777" y2="442.7855" gradientTransform="matrix(0.9996 -2.710000e-002 -2.710000e-002 -0.9996 11.2166 820.155)">
				<stop  offset="1.185770e-002" style="stop-color:#ED5B99"/>
				<stop  offset="1" style="stop-color:#EDB2C9"/>
			</linearGradient>
			<path class="st13" d="M-71,374.4c0,0-4.8,10.8-13,10.8c-2.7,0-0.9-0.9-2.8-1.3c-1.9-0.5-9.9,0.5-11.3-2.8s-0.4-7.9-0.4-7.9
				L-71,374.4z"/>
			
				<linearGradient id="SVGID_6_" gradientUnits="userSpaceOnUse" x1="-95.4777" y1="450.5222" x2="-102.2884" y2="444.7335" gradientTransform="matrix(0.9996 -2.710000e-002 -2.710000e-002 -0.9996 11.2166 820.155)">
				<stop  offset="1.185770e-002" style="stop-color:#ED5B99"/>
				<stop  offset="1" style="stop-color:#EDB2C9"/>
			</linearGradient>
			<path class="st14" d="M-103,368.2c0,0-5.9,4.5-3.8,7.6c2.2,3.2,3.2,1.8,4.3,4.1c1.1,2.3,1.4,3.3,3.2,3.2c4.3-0.3,9.5-7.2,9.5-7.2
				L-103,368.2z"/>
			
				<linearGradient id="SVGID_7_" gradientUnits="userSpaceOnUse" x1="738.7371" y1="1192.0331" x2="732.9941" y2="1187.1517" gradientTransform="matrix(-0.1038 -0.9946 -0.9946 0.1038 1193.5657 980.3354)">
				<stop  offset="1.185770e-002" style="stop-color:#ED5B99"/>
				<stop  offset="1" style="stop-color:#EDB2C9"/>
			</linearGradient>
			<path class="st15" d="M-74.7,376.6c0,0,4.9,5.6,7.9,3.2s1.5-3.4,3.8-4.6s2.5-1.6,2.9-3.4c1.9-7.8-3.8-10.6-3.8-10.6L-74.7,376.6z
				"/>
			<path class="st0" d="M-82.1,350.3c0,0-0.3,2.2-0.7,3.3c-0.4,1-5-0.6-5-0.6s3.1-3.1,4.3-3C-82.3,350.1-82.1,350.3-82.1,350.3z"/>
			<path class="st16" d="M-73,353.6c0,0,0.5-3.5-1.5-4.2s-3.9,0.3-5.6,1.5s-5.3,4.6-5.3,4.6l2.3,1.4l5.2-0.2L-73,353.6z"/>
			<path class="st17" d="M-78.7,355.7c0,0-2.2-1.4-4.9,0.1c-2.7,1.5-3.8,4.9-3.8,4.9l5.8-1.7L-78.7,355.7z"/>
			<path class="st12" d="M-82.1,344.9c0,0-1.5-2.3-5-2.2c-3.5,0.1-4.5,1.8-4.5,1.8l3.9,1.6L-82.1,344.9z"/>
			
				<linearGradient id="SVGID_8_" gradientUnits="userSpaceOnUse" x1="-94.957" y1="472.9056" x2="-84.9703" y2="472.9056" gradientTransform="matrix(0.9996 -2.710000e-002 -2.710000e-002 -0.9996 11.2166 820.155)">
				<stop  offset="7.905140e-003" style="stop-color:#F3EDE1"/>
				<stop  offset="0.3676" style="stop-color:#F4D5E1"/>
				<stop  offset="1" style="stop-color:#EDB2C9"/>
			</linearGradient>
			<path class="st18" d="M-86.6,346c0,0-4.8,0.7-6.8,4c-1.3,2.1-1.3,5.3-1.3,5.3s-4-4.8-0.1-9C-91.2,342.5-86.6,346-86.6,346z"/>
			
				<linearGradient id="SVGID_9_" gradientUnits="userSpaceOnUse" x1="-80.4893" y1="466.3324" x2="-68.8689" y2="466.3324" gradientTransform="matrix(0.9996 -2.710000e-002 -2.710000e-002 -0.9996 11.2166 820.155)">
				<stop  offset="1.185770e-002" style="stop-color:#ED5B99"/>
				<stop  offset="1" style="stop-color:#EDB2C9"/>
			</linearGradient>
			<path class="st19" d="M-82.1,344.9c0,0,6.7-1.9,9.7,3.4c0.6,1.1,2.1,4.6,2.1,4.6s-2.7,4.5-2,6.5c0.7,1.9,0.7,1.9,0.7,1.9
				l-4.6,6.3c0,0,2.6-6.9,2.7-9.9s0.3-6.5-2.3-9.4C-78.6,345.3-82.1,344.9-82.1,344.9z"/>
			
				<linearGradient id="SVGID_10_" gradientUnits="userSpaceOnUse" x1="-80.8055" y1="465.4985" x2="-71.1009" y2="465.4985" gradientTransform="matrix(0.9996 -2.710000e-002 -2.710000e-002 -0.9996 11.2166 820.155)">
				<stop  offset="1.185770e-002" style="stop-color:#ED5B99"/>
				<stop  offset="1" style="stop-color:#EDB2C9"/>
			</linearGradient>
			<path class="st20" d="M-73,353.6c0,0-1.9-1.3-4.5,0.1c-2.5,1.4-4.6,4.9-4.6,4.9l3,1.8c0,0,3.6,0.4,3.7,0.2c0.1-0.3,3-2.9,3-2.9
				L-73,353.6z"/>
			<path class="st16" d="M-73.2,358c0,0-3.4,0.7-6.2,3.4c-2.5,2.4-3.8,5.7-3.8,5.7l6.5,1.5l4.5-6.8L-73.2,358z"/>
			<path class="st16" d="M-88.7,362c0,0-2.2-4.9-4.9-7c-2.6-2.2-2.8-5.3-2.8-5.3l-3.8,4.6l-0.1,3.9l2.8,5.3l7,0.3L-88.7,362z"/>
			<path class="st17" d="M-89.6,363.8c0,0-3.5-2.3-5.7-2.1c-2.2,0.2-2.4-1.3-3.5-2.2c-1.1-0.9-1.9-7.6-1.3-9.2s0.4-2.6,0.4-2.6
				l-2.6,4c0,0,0,6.7,0.4,7.9c0.4,1.1,2.6,4.3,5.2,6.1c2.5,1.8,6,2.8,6,2.8L-89.6,363.8z"/>
			<path class="st17" d="M-102.8,353.3c0,0-2.1,2.2-2.1,4.5c-0.1,2.3-0.3,3.1,0,3.9s4.3,4,4.3,4l0.5-3.1c0,0-2.1-5.2-2-7.7
				C-102.1,352.6-102.8,353.3-102.8,353.3z"/>
			<path class="st11" d="M-91.7,367.3c0,0-2.6-1.5-5.7-3.9c-3.1-2.5-4.8-4.2-4.6-5.6s-0.1-2-0.1-2s-1.3,5.4,1.2,7.9s3.6,4.1,5.8,4.3
				C-92.8,368.3-91.7,367.3-91.7,367.3z"/>
			<path class="st16" d="M-76,359.1c0,0-2.9-2-6-0.9s-9.2,3.9-10.2,6.5s-0.9,2.3-0.9,2.3s11.6-2.4,12.2-2.2
				C-80.4,365.1-76,359.1-76,359.1z"/>
			<path class="st17" d="M-80.5,364.8c0,0-2.6-1.2-6.4,0c-3.7,1.2-7,2.2-7,2.2s4.8,0.9,6.9,2.3s4.8-1,4.8-1L-80.5,364.8z"/>
			
				<linearGradient id="SVGID_11_" gradientUnits="userSpaceOnUse" x1="-101.8885" y1="469.8079" x2="-96.9613" y2="469.8079" gradientTransform="matrix(0.9996 -2.710000e-002 -2.710000e-002 -0.9996 11.2166 820.155)">
				<stop  offset="1.185770e-002" style="stop-color:#F4D5E1"/>
				<stop  offset="1" style="stop-color:#EDB2C9"/>
			</linearGradient>
			<path class="st21" d="M-98.6,345.9c-0.2,0.1-3.5,0.7-4.5,5.3c-1.2,5.6,2.3,9.3,2.3,9.3s-2.1-7.7,0.2-10.7
				C-98.4,346.8-98.6,345.9-98.6,345.9z"/>
			
				<linearGradient id="SVGID_12_" gradientUnits="userSpaceOnUse" x1="-70.5412" y1="458.5904" x2="-75.9686" y2="462.6769" gradientTransform="matrix(0.9996 -2.710000e-002 -2.710000e-002 -0.9996 11.2166 820.155)">
				<stop  offset="1.185770e-002" style="stop-color:#ED5B99"/>
				<stop  offset="1" style="stop-color:#EDB2C9"/>
			</linearGradient>
			<path class="st22" d="M-82.3,367.2c0,0,4.3-7.7,6.8-10s2.5-5.5,2.5-5.5l4.1,4.3l0.3,3.9l-2.5,5.4l-7.9,2.2L-82.3,367.2z"/>
			<path class="st11" d="M-81.2,369.3c0,0,5.7-5.6,7.9-5.5c2.2,0.1,1.9-2.2,2.9-3.1c1-1,1.9-6.9,1.3-8.5c-0.7-1.6-0.6-2.6-0.6-2.6
				l2.9,3.8c0,0,0.4,6.7,0.1,7.9c-0.3,1.2-2.4,4.4-4.8,6.4s-5.9,3.2-5.9,3.2L-81.2,369.3z"/>
			<path class="st17" d="M-66.3,355.1c0,0,2.2,2.1,2.3,4.4c0.2,2.3,0.5,3.1,0.2,3.9c-0.2,0.8-4,4.3-4,4.3l-1.6-2.6
				c0,0,2.8-5.8,2.5-8.2C-67.1,354.4-66.3,355.1-66.3,355.1z"/>
			<path class="st12" d="M-78.9,346.7c0,0,4.2-2.1,6.4-0.7c2.3,1.4,5.2,8.7,3.3,12.7c-1.9,4.1-2.5-8.3-5.9-9.8
				S-78.9,346.7-78.9,346.7z"/>
			
				<linearGradient id="SVGID_13_" gradientUnits="userSpaceOnUse" x1="-69.3427" y1="468.037" x2="-64.604" y2="468.037" gradientTransform="matrix(0.9996 -2.710000e-002 -2.710000e-002 -0.9996 11.2166 820.155)">
				<stop  offset="1.185770e-002" style="stop-color:#F4D5E1"/>
				<stop  offset="1" style="stop-color:#EDB2C9"/>
			</linearGradient>
			<path class="st23" d="M-70.9,347.9c0.2,0.1,3.8,0.5,4.7,5c0.9,4.6-1.7,7.5-1.7,7.5s1.6-5.8-0.8-8.7
				C-71.1,348.8-70.9,347.9-70.9,347.9z"/>
			
				<linearGradient id="SVGID_14_" gradientUnits="userSpaceOnUse" x1="-87.8993" y1="442.7129" x2="-85.9837" y2="445.65" gradientTransform="matrix(0.9996 -2.710000e-002 -2.710000e-002 -0.9996 11.2166 820.155)">
				<stop  offset="1.185770e-002" style="stop-color:#F4D5E1"/>
				<stop  offset="1" style="stop-color:#EDB2C9"/>
			</linearGradient>
			<path class="st24" d="M-96,372.2c0,0-6.5,1.3-5.1,3.5c1.3,2.1,6.5,0.6,7.7,1.7s6.4,0.1,7.5,0.3c1.2,0.2,5.4,1,7.6,0.7
				s9.8-4.5,11.9-8.9s-4.2-1.2-4.2-1.2s-3.2,6-9.2,5.9S-96,372.2-96,372.2z"/>
			
				<linearGradient id="SVGID_15_" gradientUnits="userSpaceOnUse" x1="-98.8993" y1="452.6536" x2="-86.1609" y2="452.6536" gradientTransform="matrix(0.9996 -2.710000e-002 -2.710000e-002 -0.9996 11.2166 820.155)">
				<stop  offset="1.185770e-002" style="stop-color:#ED5B99"/>
				<stop  offset="1" style="stop-color:#EDB2C9"/>
			</linearGradient>
			<path class="st25" d="M-87.2,368.8c0,0-5.2-1.8-8.5-2.1c-3.3-0.4-4.3-1.2-4.3-1.2s3.5,6.8,5.5,7.7c1.9,1,6.1,1.6,6.9,1.7
				C-86.8,374.9-87.2,368.8-87.2,368.8z"/>
			
				<linearGradient id="SVGID_16_" gradientUnits="userSpaceOnUse" x1="-84.2312" y1="454.9691" x2="-84.1674" y2="449.6698" gradientTransform="matrix(0.9996 -2.710000e-002 -2.710000e-002 -0.9996 11.2166 820.155)">
				<stop  offset="1.185770e-002" style="stop-color:#F4D5E1"/>
				<stop  offset="1" style="stop-color:#EDB2C9"/>
			</linearGradient>
			<path class="st26" d="M-77.2,368.7c-0.1-0.2-4.1-3.2-8-1.6c-3.9,1.5-8.1,6.8-8.1,6.8s2.8,1.6,10.4,1
				C-75.3,374.2-77.2,368.7-77.2,368.7z"/>
			
				<linearGradient id="SVGID_17_" gradientUnits="userSpaceOnUse" x1="-97.2271" y1="457.1755" x2="-100.2918" y2="454.2386" gradientTransform="matrix(0.9996 -2.710000e-002 -2.710000e-002 -0.9996 11.2166 820.155)">
				<stop  offset="1.185770e-002" style="stop-color:#F4D5E1"/>
				<stop  offset="1" style="stop-color:#EDB2C9"/>
			</linearGradient>
			<path class="st27" d="M-94.2,373.3c0,0-3.9,0.6-7.8-3.7c-3.9-4.3-2.9-8.9-2.9-8.9s5,2.6,6.8,6C-96.4,370.1-95.3,373-94.2,373.3z"
				/>
			
				<linearGradient id="SVGID_18_" gradientUnits="userSpaceOnUse" x1="-72.9649" y1="448.6518" x2="-77.107" y2="457.1537" gradientTransform="matrix(0.9996 -2.710000e-002 -2.710000e-002 -0.9996 11.2166 820.155)">
				<stop  offset="1.185770e-002" style="stop-color:#ED5B99"/>
				<stop  offset="1" style="stop-color:#EDB2C9"/>
			</linearGradient>
			<path class="st28" d="M-69.7,370c0,0-3.6,4.9-9.7,5.2c-6.1,0.3-10.2-0.6-10.2-0.6s10.3-8.2,16.4-9.4c6.1-1.2,9.5-3.1,9.5-3.1
				L-69.7,370z"/>
			
				<linearGradient id="SVGID_19_" gradientUnits="userSpaceOnUse" x1="-69.1097" y1="454.377" x2="-67.2741" y2="451.2303" gradientTransform="matrix(0.9996 -2.710000e-002 -2.710000e-002 -0.9996 11.2166 820.155)">
				<stop  offset="1.185770e-002" style="stop-color:#F4D5E1"/>
				<stop  offset="1" style="stop-color:#EDB2C9"/>
			</linearGradient>
			<path class="st29" d="M-74.5,376.8c0,0,4.7-1,8.3-5.5c3.6-4.5,2.4-9.1,2.4-9.1s-4.9,2.9-6.5,6.4
				C-71.8,372.1-73.6,375.7-74.5,376.8z"/>
			<path class="st11" d="M-90.6,344.3c0,0-4.3-1.9-6.5-0.3c-2.2,1.5-4.7,8.9-2.6,12.9c2.2,4,2-8.4,5.3-10.1
				C-91,345-90.6,344.3-90.6,344.3z"/>
			<path class="st16" d="M-74.3,349.7c0,0-4.1-2.1-8.8-2.6c-4.7-0.5-9.1,1.5-9.1,1.5s5.2-5.3,11-3.6
				C-76.9,346.3-74.3,349.7-74.3,349.7z"/>
		</g>
	</g>
	<g>
		<g>
			
				<linearGradient id="SVGID_20_" gradientUnits="userSpaceOnUse" x1="-28.0252" y1="405.6143" x2="-28.0252" y2="361.3033" gradientTransform="matrix(0.9896 0.1435 0.1435 -0.9896 -66.2766 812.343)">
				<stop  offset="0" style="stop-color:#50A0C5"/>
				<stop  offset="0.4743" style="stop-color:#BBE4ED"/>
				<stop  offset="0.9565" style="stop-color:#50A0C5"/>
			</linearGradient>
			<path class="st30" d="M-36.4,445.8l5.8-39.9c-1.6,0.9-4.2,0.5-5,0.4l0,0h-0.1c-0.1,0-0.1,0-0.1,0l0,0c-0.8-0.1-3.4-0.5-4.7-1.8
				l-5.8,39.9c0,0-0.5,5.9,4.3,6.6C-37.4,451.7-36.4,445.8-36.4,445.8z"/>
			
				<linearGradient id="SVGID_21_" gradientUnits="userSpaceOnUse" x1="-26.2286" y1="381.7696" x2="-20.993" y2="366.7013" gradientTransform="matrix(0.9896 0.1435 0.1435 -0.9896 -66.2766 812.343)">
				<stop  offset="0" style="stop-color:#7CAEDD"/>
				<stop  offset="0.6403" style="stop-color:#BBE4ED"/>
				<stop  offset="0.9012" style="stop-color:#A0B0DA"/>
			</linearGradient>
			<path class="st31" d="M-35.9,406.9c-1.4-0.2-2.7-0.6-3.7-1.2l-5.3,36.9c0,0-0.5,5.5,3.1,6.1c3.7,0.5,4.5-5,4.5-5l5.3-36.9
				C-33.1,407-34.4,407.1-35.9,406.9z"/>
			<g>
				<path class="st0" d="M-34.9,405c0.9-8.6,2.2-21,2.6-22c1.2-2.6,4-7.8,4-7.8l-1.2-2.3c0,0-3.4,5.2-5.1,9
					c-0.5,1.1-1.8,13.7-2.7,22.6C-36.3,404.9-35.3,405-34.9,405z"/>
				<path class="st0" d="M-35.9,406.9c-0.6-0.1-1.1-0.2-1.6-0.4c-1.2,11.7-2.2,23.3-2.2,23.7c-0.1,0.9,1.3,4.7,1.9,3.3
					c0.3-0.7,1.5-13.9,2.8-26.5C-35.3,406.9-35.6,406.9-35.9,406.9z"/>
			</g>
			<path class="st3" d="M-41.9,421.2c0.1-0.9,2-1.5,4.1-1.2s3.8,1.3,3.6,2.3c-0.1,0.9-2,1.5-4.1,1.2S-42,422.2-41.9,421.2z"/>
			<g>
				<path class="st4" d="M-33,406.9l-5.3,36.6c0,0-0.8,5-4,5c0.2,0.1,0.3,0.1,0.5,0.1c3.7,0.5,4.5-5,4.5-5l5.3-36.8
					C-32.3,406.9-32.6,406.9-33,406.9z"/>
			</g>
			<g>
				<path class="st4" d="M-35.2,406.5l-7.2,34.6l0,0L-39,405C-38.2,405.2-36.1,406.3-35.2,406.5z"/>
			</g>
			
				<linearGradient id="SVGID_22_" gradientUnits="userSpaceOnUse" x1="-27.8241" y1="406.7628" x2="-28.5903" y2="413.9137" gradientTransform="matrix(0.9896 0.1435 0.1435 -0.9896 -66.2766 812.343)">
				<stop  offset="1.185770e-002" style="stop-color:#BBE4ED"/>
				<stop  offset="0.9565" style="stop-color:#50A0C5"/>
			</linearGradient>
			<path class="st32" d="M-42.1,402.3c0.3-2,3.5-3.1,7.3-2.6c3.7,0.5,6.5,2.6,6.2,4.6s-3.5,3.1-7.3,2.6
				C-39.6,406.3-42.4,404.3-42.1,402.3z"/>
			
				<linearGradient id="SVGID_23_" gradientUnits="userSpaceOnUse" x1="-27.97" y1="412.1267" x2="-28.0977" y2="407.4019" gradientTransform="matrix(0.9896 0.1435 0.1435 -0.9896 -66.2766 812.343)">
				<stop  offset="0" style="stop-color:#59BEE2"/>
				<stop  offset="0.9565" style="stop-color:#50A0C5"/>
			</linearGradient>
			<path class="st33" d="M-40.2,402c0.2-1.2,2.6-1.9,5.3-1.5s4.9,1.7,4.7,2.9c-0.2,1.2-2.6,1.9-5.3,1.5
				C-38.3,404.5-40.4,403.2-40.2,402z"/>
		</g>
		<path class="st0" d="M-33.5,389.8c0,0,4.2-0.6,4.5-0.5s11.4,5.1,12,6.1c0.6,1.1-1.1-0.1-1.5,0.1s2.1,4.3,1.9,4.5
			c-0.1,0.1-8.2-3.1-8.5-3s0.5,0.7,0.3,0.8c-0.1,0.1-4.1-0.6-4.9-2.2s-1.5-4.4-2.8-4.5c-1.2-0.1-1.4,0.1-1.4,0.1L-33.5,389.8z"/>
		
			<linearGradient id="SVGID_24_" gradientUnits="userSpaceOnUse" x1="-30.5327" y1="491.586" x2="-13.5111" y2="491.586" gradientTransform="matrix(0.9982 -6.050000e-002 -6.050000e-002 -0.9982 27.6605 859.1685)">
			<stop  offset="1.185770e-002" style="stop-color:#B97DB3"/>
			<stop  offset="1" style="stop-color:#752162"/>
		</linearGradient>
		<path class="st34" d="M-17.8,363.3c0,0-14.9-3.7-15.1-2.5c-0.2,1.2-0.2,8.7,4.6,10.9s2,9.6,7.6,7.3c5.6-2.3,5-13.2,5-13.2
			L-17.8,363.3z"/>
		<path class="st35" d="M-14.7,363.2c0,0-11.5,2.9-16.6-0.9s-5-7.4-3.4-8s-1.2-3.4-0.2-4.2c1-0.8,5.6-6.2,9.7-3
			c4,3.2,2.8,12.6,6.3,13.8C-15.4,362.1-14.7,363.2-14.7,363.2z"/>
		
			<linearGradient id="SVGID_25_" gradientUnits="userSpaceOnUse" x1="8.1604" y1="507.5945" x2="-10.2263" y2="497.0392" gradientTransform="matrix(0.9982 -6.050000e-002 -6.050000e-002 -0.9982 27.6605 859.1685)">
			<stop  offset="1.185770e-002" style="stop-color:#B97DB3"/>
			<stop  offset="1" style="stop-color:#752162"/>
		</linearGradient>
		<path class="st36" d="M-14.5,361c0,0,6.5-15.2,10.8-13.7s9.8,5.8,10.4,7.6c1.1,3,0.2,7.9-2.3,9s-19.1,0.5-19.2-0.6
			C-14.8,362.1-14.5,361-14.5,361z"/>
		
			<linearGradient id="SVGID_26_" gradientUnits="userSpaceOnUse" x1="-20.5838" y1="484.0353" x2="-7.9012" y2="484.0353" gradientTransform="matrix(0.9982 -6.050000e-002 -6.050000e-002 -0.9982 27.6605 859.1685)">
			<stop  offset="1.185770e-002" style="stop-color:#B97DB3"/>
			<stop  offset="1" style="stop-color:#752162"/>
		</linearGradient>
		<path class="st37" d="M-16.3,366c0,0-8.6,8.2-4.9,15.4c3.6,7.2,4.6,6.2,6.6,6.4c2.1,0.1,5.3-3.1,5.3-6.7s-5.7-15.3-5.7-15.3
			L-16.3,366z"/>
		
			<linearGradient id="SVGID_27_" gradientUnits="userSpaceOnUse" x1="11.3896" y1="487.3085" x2="-6.9975" y2="498.2046" gradientTransform="matrix(0.9982 -6.050000e-002 -6.050000e-002 -0.9982 27.6605 859.1685)">
			<stop  offset="1.185770e-002" style="stop-color:#F5B1CF"/>
			<stop  offset="1" style="stop-color:#B97DB3"/>
		</linearGradient>
		<path class="st38" d="M-12.7,362.6c-1.3,0.1,7.2-3.9,10.4-3.5s10.5,1.8,11.8,8.4s-1.2,8-6.7,7.6c-5.7-0.4-17.1-6-17-9.7
			C-14.1,361.6-12.7,362.6-12.7,362.6z"/>
		
			<linearGradient id="SVGID_28_" gradientUnits="userSpaceOnUse" x1="-16.9211" y1="484.3608" x2="6.5856" y2="484.3608" gradientTransform="matrix(0.9982 -6.050000e-002 -6.050000e-002 -0.9982 27.6605 859.1685)">
			<stop  offset="1.185770e-002" style="stop-color:#F5B1CF"/>
			<stop  offset="1" style="stop-color:#E9C5DE"/>
		</linearGradient>
		<path class="st39" d="M-15.8,366.7c0,0-3.9,6.8-2.5,9.5s6.4,8.8,9,8.4s4.1-1.6,4.8-0.4s1.6,3.1,3.6,2.2s8.8-8.2,4.6-12.7
			s-13.3-5.5-14.7-6.9c-1.5-1.4-1.5-1.4-1.5-1.4L-15.8,366.7z"/>
		
			<linearGradient id="SVGID_29_" gradientUnits="userSpaceOnUse" x1="-1.9731" y1="514.8797" x2="-14.9122" y2="507.7292" gradientTransform="matrix(0.9982 -6.050000e-002 -6.050000e-002 -0.9982 27.6605 859.1685)">
			<stop  offset="1.185770e-002" style="stop-color:#F5B1CF"/>
			<stop  offset="1" style="stop-color:#B97DB3"/>
		</linearGradient>
		<path class="st40" d="M-14.2,361.9c0.6-1.2,0.6-2.6,2.2-3.3c1.6-0.7,7-3.1,7.1-7.3c0.1-4.2-2.2-11.3-3.5-11.6
			c-1.3-0.3-1.1,0.3-1.9,0.6c-0.8,0.3-1.5-1.6-2.5-0.6c-1,0.9-6,2.3-6.3,3.7c-0.3,1.4-2,13.4-0.4,15.1s4.1,3.6,4.1,3.6L-14.2,361.9z
			"/>
		
			<linearGradient id="SVGID_30_" gradientUnits="userSpaceOnUse" x1="-28.8968" y1="508.7899" x2="-11.3531" y2="508.7899" gradientTransform="matrix(0.9982 -6.050000e-002 -6.050000e-002 -0.9982 27.6605 859.1685)">
			<stop  offset="1.185770e-002" style="stop-color:#F5B1CF"/>
			<stop  offset="1" style="stop-color:#E9C5DE"/>
		</linearGradient>
		<path class="st41" d="M-14.6,361.6c0,0-3.3-1.8-2.9-6.1c0.4-4.2,4.1-10.2,2.1-12.3c-2.1-2.1-8.8-2-8.8-2s-1.6-0.9-2.3,0.1
			c-0.7,1.1,0,4.9-1.2,6.7c-1.3,1.9-5.6,6-3.3,8.3s10.1,6.3,14.1,7.3C-13,364.8-14.6,361.6-14.6,361.6z"/>
		
			<linearGradient id="SVGID_31_" gradientUnits="userSpaceOnUse" x1="-30.7568" y1="491.0886" x2="-20.5192" y2="491.0886" gradientTransform="matrix(0.9982 -6.050000e-002 -6.050000e-002 -0.9982 27.6605 859.1685)">
			<stop  offset="1.185770e-002" style="stop-color:#F5B1CF"/>
			<stop  offset="1" style="stop-color:#E9C5DE"/>
		</linearGradient>
		<path class="st42" d="M-32.9,361.2c0,0,5.2,3.5,7,7.3c1.8,3.7,1.5,8.3,2.9,9.3c1.4,0.9,1.1,2,1.1,2s-4.9,0.8-8.3-6.8
			C-34.4,363.8-32.9,361.2-32.9,361.2z"/>
		
			<linearGradient id="SVGID_32_" gradientUnits="userSpaceOnUse" x1="-13.5201" y1="422.0595" x2="-5.7815" y2="422.5283" gradientTransform="matrix(1 0 0 -1 0 794.6)">
			<stop  offset="1.185770e-002" style="stop-color:#B97DB3"/>
			<stop  offset="1" style="stop-color:#752162"/>
		</linearGradient>
		<path class="st43" d="M-13.5,366.2c0,0,0.3,0.9,0.8,2.1c0.3,0.6,0.6,1.4,1,2.1c0.2,0.4,0.4,0.8,0.6,1.2c0.2,0.4,0.5,0.8,0.7,1.2
			c0.2,0.4,0.5,0.8,0.8,1.1c0.3,0.4,0.5,0.7,0.8,1.1s0.5,0.7,0.8,1s0.5,0.6,0.8,0.8c0.2,0.2,0.5,0.5,0.7,0.7s0.4,0.4,0.5,0.5
			c0.3,0.3,0.5,0.4,0.5,0.4s-0.2-0.1-0.5-0.4c-0.2-0.1-0.4-0.3-0.6-0.5s-0.4-0.4-0.7-0.6c-0.3-0.2-0.5-0.5-0.8-0.8
			c-0.3-0.3-0.5-0.6-0.8-0.9c-0.3-0.3-0.6-0.7-0.8-1.1c-0.3-0.4-0.5-0.8-0.8-1.1c-0.3-0.4-0.5-0.8-0.8-1.2c-0.2-0.4-0.5-0.8-0.7-1.2
			c-0.4-0.8-0.8-1.5-1.1-2.1c-0.6-1.3-0.9-2.2-0.9-2.2L-13.5,366.2z"/>
		
			<linearGradient id="SVGID_33_" gradientUnits="userSpaceOnUse" x1="-4.9422" y1="433.0912" x2="-1.4029" y2="422.9489" gradientTransform="matrix(1 0 0 -1 0 794.6)">
			<stop  offset="1.185770e-002" style="stop-color:#B97DB3"/>
			<stop  offset="1" style="stop-color:#752162"/>
		</linearGradient>
		<path class="st44" d="M-12.2,364.1c0,0,1.2,0,3,0.2c0.4,0.1,0.9,0.1,1.4,0.2s1,0.2,1.6,0.2c0.5,0.1,1.1,0.2,1.7,0.3
			c0.6,0.1,1.2,0.2,1.7,0.4c0.6,0.2,1.1,0.3,1.7,0.5c0.3,0.1,0.5,0.2,0.8,0.3c0.3,0.1,0.5,0.2,0.8,0.3c0.3,0.1,0.5,0.2,0.8,0.3
			c0.2,0.1,0.5,0.2,0.7,0.3c0.5,0.2,0.9,0.4,1.3,0.6s0.8,0.4,1.1,0.5c0.3,0.2,0.6,0.4,0.8,0.5c0.5,0.3,0.7,0.4,0.7,0.4
			s-0.3-0.1-0.7-0.4c-0.2-0.1-0.5-0.3-0.8-0.5s-0.7-0.3-1.1-0.5s-0.8-0.4-1.3-0.6c-0.2-0.1-0.5-0.2-0.7-0.3
			c-0.2-0.1-0.5-0.2-0.8-0.3c-0.3-0.1-0.5-0.2-0.8-0.3c-0.3-0.1-0.5-0.2-0.8-0.2c-0.5-0.2-1.1-0.3-1.7-0.4c-0.6-0.2-1.2-0.2-1.7-0.4
			c-0.6-0.1-1.1-0.2-1.7-0.3c-0.5-0.1-1.1-0.2-1.6-0.2c-0.5-0.1-1-0.1-1.4-0.1c-1.8-0.1-2.9-0.1-2.9-0.1L-12.2,364.1z"/>
		
			<linearGradient id="SVGID_34_" gradientUnits="userSpaceOnUse" x1="-19.7121" y1="439.4073" x2="-6.7105" y2="446.5285" gradientTransform="matrix(1 0 0 -1 0 794.6)">
			<stop  offset="1.185770e-002" style="stop-color:#B97DB3"/>
			<stop  offset="1" style="stop-color:#752162"/>
		</linearGradient>
		<path class="st45" d="M-16,361.9c0,0,0-1.4,0.2-3.4c0.1-0.5,0.1-1.1,0.2-1.6c0.1-0.6,0.2-1.2,0.3-1.8c0.1-0.6,0.2-1.3,0.4-1.9
			c0.1-0.6,0.3-1.3,0.4-2c0.2-0.7,0.3-1.3,0.5-2c0.1-0.3,0.2-0.6,0.3-0.9s0.2-0.6,0.3-0.9s0.2-0.6,0.3-0.9s0.2-0.6,0.3-0.8
			c0.2-0.5,0.4-1.1,0.6-1.5c0.2-0.5,0.4-0.9,0.6-1.3s0.4-0.7,0.5-1c0.3-0.5,0.4-0.8,0.4-0.8s-0.1,0.3-0.4,0.9
			c-0.1,0.3-0.3,0.6-0.5,1s-0.3,0.8-0.5,1.3s-0.4,1-0.6,1.5c-0.1,0.3-0.2,0.6-0.3,0.8c-0.1,0.3-0.2,0.6-0.3,0.9s-0.2,0.6-0.3,0.9
			s-0.2,0.6-0.2,1c-0.2,0.6-0.3,1.3-0.5,2c-0.2,0.6-0.3,1.3-0.4,2c-0.1,0.6-0.2,1.3-0.3,1.9s-0.2,1.2-0.2,1.8
			c-0.1,0.6-0.1,1.1-0.2,1.6c-0.2,2-0.2,3.4-0.2,3.4L-16,361.9z"/>
		
			<linearGradient id="SVGID_35_" gradientUnits="userSpaceOnUse" x1="-22.462" y1="438.1539" x2="-17.5952" y2="438.4487" gradientTransform="matrix(1 0 0 -1 0 794.6)">
			<stop  offset="1.185770e-002" style="stop-color:#B97DB3"/>
			<stop  offset="1" style="stop-color:#752162"/>
		</linearGradient>
		<path class="st46" d="M-17.5,361.8c0,0-0.6-0.5-1.4-1.4c-0.2-0.2-0.4-0.5-0.6-0.7c-0.2-0.3-0.4-0.6-0.6-0.9s-0.4-0.6-0.6-1
			c-0.2-0.3-0.4-0.7-0.5-1c-0.1-0.2-0.2-0.4-0.2-0.5c-0.1-0.2-0.1-0.4-0.2-0.5c-0.2-0.4-0.2-0.7-0.4-1.1c-0.1-0.4-0.2-0.7-0.2-1
			c0-0.2-0.1-0.3-0.1-0.5s0-0.3-0.1-0.5c0-0.3-0.1-0.6-0.1-0.8c0-0.2,0-0.4,0-0.6c0-0.4,0-0.5,0-0.5s0,0.2,0,0.5c0,0.2,0,0.4,0,0.6
			s0.1,0.5,0.1,0.8c0,0.1,0.1,0.3,0.1,0.5s0.1,0.3,0.1,0.5c0.1,0.3,0.1,0.7,0.3,1c0.1,0.4,0.2,0.7,0.4,1.1c0.1,0.2,0.1,0.4,0.2,0.5
			c0.1,0.2,0.2,0.4,0.3,0.5c0.2,0.4,0.4,0.7,0.6,1s0.4,0.6,0.6,0.9s0.4,0.6,0.6,0.8c0.2,0.2,0.4,0.5,0.6,0.7
			c0.8,0.9,1.4,1.3,1.4,1.3L-17.5,361.8z"/>
		
			<linearGradient id="SVGID_36_" gradientUnits="userSpaceOnUse" x1="-4.9481" y1="439.3501" x2="-4.2361" y2="434.4915" gradientTransform="matrix(1 0 0 -1 0 794.6)">
			<stop  offset="1.185770e-002" style="stop-color:#B97DB3"/>
			<stop  offset="1" style="stop-color:#752162"/>
		</linearGradient>
		<path class="st47" d="M-13.7,361.2c0,0,0.1-0.1,0.2-0.1c0.1-0.1,0.3-0.2,0.5-0.4c0.2-0.2,0.5-0.4,0.8-0.6s0.7-0.5,1.1-0.7
			s0.8-0.5,1.3-0.8c0.5-0.2,0.9-0.5,1.5-0.8c0.3-0.1,0.5-0.3,0.8-0.4s0.5-0.2,0.8-0.4c0.5-0.3,1.1-0.5,1.7-0.7s1.2-0.4,1.7-0.6
			c0.6-0.2,1.2-0.4,1.7-0.5c0.6-0.2,1.1-0.3,1.6-0.4s1-0.2,1.5-0.3c0.5-0.1,0.9-0.2,1.2-0.2c0.4-0.1,0.7-0.1,1-0.1
			c0.5-0.1,0.8-0.1,0.8-0.1s-0.3,0.1-0.8,0.1c-0.3,0-0.6,0.1-1,0.1c-0.4,0.1-0.8,0.1-1.2,0.2c-0.5,0.1-0.9,0.2-1.5,0.3
			c-0.5,0.1-1.1,0.3-1.6,0.4c-0.5,0.2-1.1,0.4-1.7,0.5c-0.6,0.2-1.2,0.4-1.7,0.6c-0.6,0.2-1.1,0.5-1.7,0.7c-0.3,0.1-0.5,0.3-0.8,0.4
			s-0.5,0.3-0.8,0.4c-0.5,0.3-1,0.5-1.5,0.8s-0.9,0.5-1.3,0.8c-0.4,0.2-0.7,0.5-1,0.7s-0.6,0.4-0.8,0.6s-0.4,0.3-0.5,0.4
			S-13.6,361.2-13.7,361.2L-13.7,361.2z"/>
		<g>
			<path class="st48" d="M-17.7,365.3c-0.9-1.7-0.5-3.8,1-4.6c1.5-0.8,3.5-0.1,4.4,1.5c0.9,1.7,0.5,3.8-1,4.6
				C-14.8,367.7-16.8,367-17.7,365.3z"/>
			<g>
				<ellipse class="st49" cx="-15.4" cy="361.4" rx="0.5" ry="0.5"/>
				<circle class="st49" cx="-15.6" cy="363.1" r="0.2"/>
				<circle class="st49" cx="-16.8" cy="362.6" r="0.2"/>
				<circle class="st49" cx="-16.8" cy="363.3" r="0.1"/>
				<circle class="st49" cx="-17.6" cy="363.3" r="0.2"/>
				<circle class="st49" cx="-17.4" cy="363.9" r="0.1"/>
				<circle class="st49" cx="-16.4" cy="364.8" r="0.2"/>
				<circle class="st49" cx="-16.5" cy="363.8" r="0.1"/>
				<circle class="st49" cx="-15.3" cy="364.4" r="0.4"/>
				<circle class="st49" cx="-14.7" cy="363.8" r="0.1"/>
				<circle class="st49" cx="-14.7" cy="362.9" r="0.1"/>
				<circle class="st49" cx="-15.3" cy="362.4" r="0.1"/>
				<circle class="st49" cx="-16.5" cy="361.5" r="0.2"/>
				<circle class="st49" cx="-14.4" cy="362.2" r="0.1"/>
				<circle class="st49" cx="-13" cy="361.8" r="0.5"/>
				<circle class="st49" cx="-12.2" cy="362.7" r="0.2"/>
				<circle class="st49" cx="-13" cy="363.5" r="0.1"/>
				<circle class="st49" cx="-14" cy="360.8" r="0.2"/>
				<circle class="st49" cx="-15.6" cy="360.4" r="0.2"/>
				<circle class="st49" cx="-17.3" cy="361.4" r="0.2"/>
				<circle class="st49" cx="-18" cy="362.4" r="0.1"/>
				<path class="st49" d="M-18.2,364.6c0-0.1,0.1-0.2,0.2-0.2s0.2,0.1,0.2,0.2s-0.1,0.2-0.2,0.2S-18.2,364.7-18.2,364.6z"/>
				<circle class="st49" cx="-17.1" cy="365.3" r="0.2"/>
				<circle class="st49" cx="-15.4" cy="366.2" r="0.2"/>
				<circle class="st49" cx="-16.5" cy="366" r="0.1"/>
				<circle class="st49" cx="-14.7" cy="365.8" r="0.1"/>
				<circle class="st49" cx="-15.7" cy="365.4" r="0.1"/>
				<circle class="st49" cx="-14.3" cy="365.2" r="0.1"/>
				<circle class="st49" cx="-13.8" cy="363.8" r="0.3"/>
				<path class="st49" d="M-13.4,364.4c0-0.1,0.1-0.2,0.2-0.2s0.2,0.1,0.2,0.2s-0.1,0.2-0.2,0.2S-13.4,364.5-13.4,364.4z"/>
				<circle class="st49" cx="-12.6" cy="364.9" r="0.2"/>
				<circle class="st49" cx="-12.1" cy="364.1" r="0.1"/>
				<circle class="st49" cx="-13.2" cy="362.7" r="0.1"/>
				<circle class="st49" cx="-13.2" cy="365.3" r="0.1"/>
				<circle class="st49" cx="-13.4" cy="366.5" r="0.1"/>
				<path class="st49" d="M-14,365.9c0-0.1,0.1-0.1,0.1-0.1c0.1,0,0.1,0.1,0.1,0.1l-0.1,0.1C-14,366-14,365.9-14,365.9z"/>
				<circle class="st49" cx="-14.1" cy="366.8" r="0.1"/>
				<circle class="st49" cx="-14.7" cy="366.9" r="0.1"/>
				<circle class="st49" cx="-12.6" cy="366.1" r="0.2"/>
				<circle class="st49" cx="-15.3" cy="367.1" r="0.3"/>
				<circle class="st49" cx="-16.4" cy="366.4" r="0.1"/>
			</g>
			<g>
				<circle class="st50" cx="-13.8" cy="362.9" r="0.1"/>
				<circle class="st50" cx="-14.5" cy="363.4" r="0.1"/>
				<circle class="st50" cx="-15.1" cy="363.4" r="0.1"/>
				<circle class="st50" cx="-15.4" cy="363.7" r="0.1"/>
				<circle class="st50" cx="-16.3" cy="363.3" r="0.3"/>
				<circle class="st50" cx="-16.2" cy="362.3" r="0.1"/>
				<circle class="st50" cx="-16.7" cy="362.2" r="0.1"/>
				<circle class="st50" cx="-15.6" cy="362.2" r="0.1"/>
				<circle class="st50" cx="-14.7" cy="362" r="0.2"/>
				<circle class="st50" cx="-14.6" cy="361.1" r="0.2"/>
				<circle class="st50" cx="-15.2" cy="361.6" r="0.2"/>
				<circle class="st50" cx="-14.1" cy="361.9" r="0.2"/>
				<circle class="st50" cx="-13.4" cy="362.4" r="0.2"/>
				<circle class="st50" cx="-12.7" cy="363.2" r="0.1"/>
				<circle class="st50" cx="-12.6" cy="364.3" r="0.1"/>
				<circle class="st50" cx="-14.1" cy="364.7" r="0.3"/>
				<circle class="st50" cx="-14.5" cy="364.4" r="0.1"/>
				<circle class="st50" cx="-14.7" cy="364.9" r="0.1"/>
				<circle class="st50" cx="-15.2" cy="365.6" r="0.2"/>
				<circle class="st50" cx="-16.1" cy="364.7" r="0.1"/>
				<circle class="st50" cx="-17" cy="364.6" r="0.2"/>
				<circle class="st50" cx="-17.7" cy="363.9" r="0.2"/>
				<circle class="st50" cx="-18.1" cy="363.2" r="0.1"/>
				<circle class="st50" cx="-16.5" cy="365.5" r="0.1"/>
				<circle class="st50" cx="-17.1" cy="366.1" r="0.2"/>
				<circle class="st50" cx="-15.9" cy="366.4" r="0.1"/>
				<circle class="st50" cx="-14.5" cy="366.7" r="0.1"/>
				<circle class="st50" cx="-14.4" cy="366" r="0.1"/>
				<circle class="st50" cx="-13.4" cy="365.9" r="0.2"/>
				<circle class="st50" cx="-13.9" cy="366.7" r="0.2"/>
				<circle class="st50" cx="-12.5" cy="365.4" r="0.2"/>
				<circle class="st50" cx="-11.7" cy="363.6" r="0.1"/>
				<circle class="st50" cx="-14.9" cy="362.5" r="0.1"/>
				<circle class="st50" cx="-16.1" cy="361.6" r="0.1"/>
				<circle class="st50" cx="-16.2" cy="360.9" r="0.1"/>
				<circle class="st50" cx="-17" cy="361.8" r="0.2"/>
				<circle class="st50" cx="-17.1" cy="362.6" r="0.1"/>
				<circle class="st50" cx="-17.4" cy="362.2" r="0.1"/>
				<circle class="st50" cx="-17.4" cy="362.9" r="0.2"/>
			</g>
			<g>
				<circle class="st51" cx="-15.6" cy="362.6" r="0.2"/>
				<path class="st51" d="M-16.9,364c0-0.2,0.1-0.3,0.3-0.3s0.3,0.1,0.3,0.3c0,0.2-0.1,0.3-0.3,0.3C-16.8,364.3-16.9,364.2-16.9,364
					z"/>
				<circle class="st51" cx="-12.8" cy="363.9" r="0.2"/>
				<path class="st51" d="M-13.8,365.3c0-0.2,0.1-0.3,0.3-0.3s0.3,0.1,0.3,0.3c0,0.2-0.1,0.3-0.3,0.3
					C-13.6,365.6-13.8,365.4-13.8,365.3z"/>
				<circle class="st51" cx="-14.4" cy="362.5" r="0.2"/>
				<path class="st51" d="M-14.5,360.6c0-0.1,0.1-0.2,0.2-0.2s0.2,0.1,0.2,0.2s-0.1,0.2-0.2,0.2S-14.5,360.7-14.5,360.6z"/>
				<path class="st51" d="M-16.6,360.6c0-0.2,0.1-0.3,0.3-0.3c0.2,0,0.3,0.1,0.3,0.3c0,0.2-0.1,0.3-0.3,0.3
					C-16.5,360.9-16.6,360.8-16.6,360.6z"/>
				<path class="st51" d="M-17.5,365.8c0-0.2,0.1-0.3,0.3-0.3c0.2,0,0.3,0.1,0.3,0.3c0,0.2-0.1,0.3-0.3,0.3
					C-17.4,366.1-17.5,365.9-17.5,365.8z"/>
				<path class="st51" d="M-15.9,365.6c0-0.2,0.1-0.3,0.3-0.3s0.3,0.1,0.3,0.3c0,0.2-0.1,0.3-0.3,0.3S-15.9,365.8-15.9,365.6z"/>
				<circle class="st51" cx="-17.3" cy="362.2" r="0.2"/>
				<circle class="st51" cx="-13.6" cy="367.1" r="0.2"/>
				<circle class="st51" cx="-12.5" cy="362" r="0.2"/>
				<circle class="st51" cx="-16.1" cy="362.6" r="0.1"/>
				<circle class="st51" cx="-16.2" cy="361.2" r="0.1"/>
				<circle class="st51" cx="-17" cy="361.2" r="0.1"/>
				<circle class="st51" cx="-16.8" cy="363" r="0.1"/>
				<circle class="st51" cx="-17.2" cy="364.2" r="0.1"/>
				<circle class="st51" cx="-17.7" cy="363.6" r="0.1"/>
				<path class="st51" d="M-17.8,362.8L-17.8,362.8C-17.9,362.9-17.9,362.8-17.8,362.8C-18,362.8-17.9,362.7-17.8,362.8
					C-17.9,362.7-17.8,362.8-17.8,362.8z"/>
				<circle class="st51" cx="-17.7" cy="362.9" r="0.1"/>
				<circle class="st51" cx="-17.3" cy="361.8" r="0.1"/>
				<circle class="st51" cx="-15.8" cy="362" r="0.1"/>
				<path class="st51" d="M-14.7,364.3C-14.7,364.4-14.7,364.4-14.7,364.3C-14.8,364.4-14.8,364.3-14.7,364.3
					C-14.8,364.3-14.8,364.3-14.7,364.3L-14.7,364.3z"/>
				<path class="st51" d="M-13.9,365.6C-13.9,365.6-14,365.7-13.9,365.6C-14,365.7-14,365.6-13.9,365.6
					C-14,365.6-14,365.6-13.9,365.6C-14,365.5-13.9,365.6-13.9,365.6z"/>
				<circle class="st51" cx="-12.5" cy="362.8" r="0.1"/>
				<circle class="st51" cx="-16.2" cy="362" r="0.1"/>
				<circle class="st51" cx="-15.5" cy="360.9" r="0.1"/>
				<circle class="st51" cx="-15.1" cy="361" r="0.1"/>
				<circle class="st51" cx="-14.8" cy="360.5" r="0.1"/>
				<circle class="st51" cx="-13.9" cy="361.2" r="0.1"/>
				<circle class="st51" cx="-14.4" cy="361.7" r="0.1"/>
				<path class="st51" d="M-14,362.7L-14,362.7C-14.1,362.8-14.1,362.7-14,362.7C-14.1,362.7-14,362.6-14,362.7
					C-14,362.6-14,362.6-14,362.7z"/>
				<circle class="st51" cx="-14.1" cy="363.6" r="0.1"/>
				<circle class="st51" cx="-14.6" cy="364.1" r="0"/>
				<circle class="st51" cx="-15.3" cy="362.8" r="0"/>
				<circle class="st51" cx="-15.2" cy="363.7" r="0"/>
				<path class="st51" d="M-13.9,366.3C-13.9,366.3-13.9,366.4-13.9,366.3C-13.9,366.4-14,366.3-13.9,366.3
					C-14,366.3-13.9,366.3-13.9,366.3L-13.9,366.3z"/>
				<circle class="st51" cx="-13.1" cy="366.3" r="0"/>
				<path class="st51" d="M-13,365.5C-13,365.5-13,365.6-13,365.5C-13.1,365.6-13.1,365.5-13,365.5C-13.1,365.5-13.1,365.5-13,365.5
					L-13,365.5z"/>
				<circle class="st51" cx="-12.4" cy="364.5" r="0"/>
				<path class="st51" d="M-15.6,364.9C-15.6,365-15.6,365-15.6,364.9C-15.6,365-15.7,365-15.6,364.9
					C-15.7,364.9-15.6,364.9-15.6,364.9L-15.6,364.9z"/>
				<circle class="st51" cx="-15.4" cy="364.7" r="0"/>
				<circle class="st51" cx="-13.7" cy="365" r="0"/>
				<path class="st51" d="M-13.4,364.4C-13.4,364.5-13.4,364.5-13.4,364.4C-13.5,364.5-13.5,364.5-13.4,364.4
					C-13.5,364.4-13.5,364.4-13.4,364.4L-13.4,364.4z"/>
				<path class="st51" d="M-13.1,363.5L-13.1,363.5L-13.1,363.5C-13.1,363.5-13.1,363.4-13.1,363.5
					C-13.1,363.4-13.1,363.4-13.1,363.5z"/>
				<circle class="st51" cx="-13.5" cy="363.3" r="0"/>
				<circle class="st51" cx="-12.9" cy="363.1" r="0"/>
				<path class="st51" d="M-12.4,363.1C-12.4,363.2-12.4,363.2-12.4,363.1C-12.5,363.2-12.5,363.2-12.4,363.1
					C-12.5,363.1-12.5,363.1-12.4,363.1L-12.4,363.1z"/>
				<circle class="st51" cx="-13.7" cy="362" r="0"/>
				<circle class="st51" cx="-14.1" cy="365.2" r="0"/>
				<circle class="st51" cx="-14.6" cy="365.5" r="0"/>
				<circle class="st51" cx="-15" cy="365.1" r="0"/>
				<circle class="st51" cx="-15.4" cy="365.6" r="0"/>
				<circle class="st51" cx="-15.1" cy="365.8" r="0"/>
				<circle class="st51" cx="-16.2" cy="365.8" r="0"/>
				<circle class="st51" cx="-16.1" cy="365.3" r="0"/>
				<circle class="st51" cx="-17.4" cy="364.4" r="0"/>
				<circle class="st51" cx="-18" cy="364" r="0"/>
				<circle class="st51" cx="-18" cy="363.8" r="0"/>
				<circle class="st51" cx="-17.3" cy="365" r="0"/>
				<circle class="st51" cx="-17.5" cy="365.5" r="0"/>
				<circle class="st51" cx="-16" cy="365.9" r="0"/>
				<circle class="st51" cx="-17.1" cy="363.4" r="0.1"/>
				<circle class="st51" cx="-16.7" cy="364" r="0.1"/>
				<circle class="st51" cx="-16.2" cy="364.3" r="0"/>
				<circle class="st51" cx="-16.5" cy="364.2" r="0"/>
				<path class="st51" d="M-15.9,363.7c0-0.1,0-0.1,0.1-0.1s0.1,0,0.1,0.1s0,0.1-0.1,0.1S-15.9,363.8-15.9,363.7z"/>
				<circle class="st51" cx="-14.8" cy="366.4" r="0.1"/>
				<circle class="st51" cx="-12.6" cy="365.2" r="0.1"/>
				<circle class="st51" cx="-13" cy="364.8" r="0.1"/>
				<path class="st51" d="M-12.1,363.6c0-0.1,0-0.1,0.1-0.1s0.1,0,0.1,0.1s0,0.1-0.1,0.1S-12.1,363.7-12.1,363.6z"/>
			</g>
			<g>
				<ellipse class="st49" cx="-17.1" cy="362.7" rx="0.5" ry="0.5"/>
				<circle class="st49" cx="-15.8" cy="363.9" r="0.2"/>
				<circle class="st49" cx="-17" cy="364.5" r="0.2"/>
				<circle class="st49" cx="-16.4" cy="364.9" r="0.1"/>
				<circle class="st49" cx="-16.9" cy="365.6" r="0.2"/>
				<circle class="st49" cx="-16.3" cy="365.8" r="0.1"/>
				<circle class="st49" cx="-15" cy="365.5" r="0.2"/>
				<circle class="st49" cx="-15.8" cy="365.1" r="0.1"/>
				<path class="st49" d="M-14.8,364.8c-0.2-0.1-0.2-0.4-0.1-0.6s0.4-0.2,0.6-0.1s0.2,0.4,0.1,0.6
					C-14.4,364.8-14.7,364.9-14.8,364.8z"/>
				<circle class="st49" cx="-14.8" cy="363.5" r="0.1"/>
				<circle class="st49" cx="-15.4" cy="363" r="0.1"/>
				<circle class="st49" cx="-16.3" cy="363.2" r="0.1"/>
				<circle class="st49" cx="-17.7" cy="363.7" r="0.2"/>
				<circle class="st49" cx="-15.9" cy="362.4" r="0.1"/>
				<circle class="st49" cx="-15.4" cy="361" r="0.5"/>
				<circle class="st49" cx="-14.1" cy="360.9" r="0.2"/>
				<circle class="st49" cx="-14" cy="362" r="0.1"/>
				<path class="st49" d="M-16.9,361.4c-0.1-0.1-0.1-0.2-0.1-0.3c0.1-0.1,0.2-0.1,0.3-0.1c0.1,0.1,0.1,0.2,0.1,0.3
					C-16.6,361.5-16.8,361.5-16.9,361.4z"/>
				<path class="st49" d="M-18.2,362.5c-0.1-0.1-0.1-0.2-0.1-0.3c0.1-0.1,0.2-0.1,0.3-0.1c0.1,0.1,0.1,0.2,0.1,0.3
					C-17.9,362.5-18.1,362.6-18.2,362.5z"/>
				<circle class="st49" cx="-18.3" cy="364.2" r="0.2"/>
				<circle class="st49" cx="-17.8" cy="365.4" r="0.1"/>
				<circle class="st49" cx="-16.1" cy="366.7" r="0.2"/>
				<circle class="st49" cx="-15" cy="366.4" r="0.2"/>
				<circle class="st49" cx="-13.2" cy="365.6" r="0.2"/>
				<circle class="st49" cx="-14.1" cy="366.3" r="0.1"/>
				<circle class="st49" cx="-13.1" cy="364.7" r="0.1"/>
				<circle class="st49" cx="-14.1" cy="365.3" r="0.1"/>
				<circle class="st49" cx="-13.4" cy="364.1" r="0.1"/>
				<circle class="st49" cx="-14.2" cy="362.9" r="0.3"/>
				<circle class="st49" cx="-13.4" cy="362.8" r="0.2"/>
				<circle class="st49" cx="-12.6" cy="362.5" r="0.2"/>
				<path class="st49" d="M-13.1,361.7c-0.1,0-0.1-0.1,0-0.2s0.1-0.1,0.2,0c0.1,0,0.1,0.1,0,0.2C-13,361.8-13,361.8-13.1,361.7z"/>
				<circle class="st49" cx="-14.8" cy="361.8" r="0.1"/>
				<circle class="st49" cx="-12.7" cy="363.2" r="0.1"/>
				<circle class="st49" cx="-11.8" cy="364.1" r="0.1"/>
				<circle class="st49" cx="-12.6" cy="364.1" r="0.1"/>
				<circle class="st49" cx="-12" cy="364.9" r="0.1"/>
				<circle class="st49" cx="-12.3" cy="365.4" r="0.1"/>
				<circle class="st49" cx="-11.7" cy="363.1" r="0.2"/>
				<circle class="st49" cx="-12.4" cy="365.9" r="0.3"/>
				<circle class="st49" cx="-13.6" cy="366.5" r="0.1"/>
			</g>
			<g>
				<circle class="st50" cx="-14.9" cy="362.3" r="0.1"/>
				<circle class="st50" cx="-15" cy="363.2" r="0.1"/>
				<circle class="st50" cx="-15.4" cy="363.6" r="0.1"/>
				<circle class="st50" cx="-15.3" cy="364.1" r="0.1"/>
				<circle class="st50" cx="-16.1" cy="364.6" r="0.3"/>
				<circle class="st50" cx="-16.9" cy="363.9" r="0.1"/>
				<circle class="st50" cx="-17.3" cy="364.2" r="0.1"/>
				<circle class="st50" cx="-16.6" cy="363.3" r="0.1"/>
				<circle class="st50" cx="-16.2" cy="362.5" r="0.2"/>
				<circle class="st50" cx="-16.9" cy="361.9" r="0.2"/>
				<circle class="st50" cx="-16.9" cy="362.6" r="0.2"/>
				<circle class="st50" cx="-15.9" cy="361.9" r="0.2"/>
				<circle class="st50" cx="-15.1" cy="361.7" r="0.2"/>
				<circle class="st50" cx="-14" cy="361.6" r="0.1"/>
				<circle class="st50" cx="-13.1" cy="362.2" r="0.1"/>
				<circle class="st50" cx="-13.7" cy="363.6" r="0.3"/>
				<circle class="st50" cx="-14.2" cy="363.7" r="0.1"/>
				<circle class="st50" cx="-13.9" cy="364.2" r="0.1"/>
				<circle class="st50" cx="-13.6" cy="365.1" r="0.2"/>
				<circle class="st50" cx="-14.8" cy="365.3" r="0.1"/>
				<path class="st50" d="M-15.6,366c-0.1-0.1-0.1-0.2-0.1-0.3c0.1-0.1,0.2-0.1,0.3-0.1c0.1,0.1,0.1,0.2,0.1,0.3
					C-15.4,366.1-15.5,366.1-15.6,366z"/>
				<circle class="st50" cx="-16.4" cy="366" r="0.2"/>
				<circle class="st50" cx="-17.3" cy="365.9" r="0.1"/>
				<circle class="st50" cx="-14.4" cy="366" r="0.1"/>
				<circle class="st50" cx="-14.3" cy="366.9" r="0.2"/>
				<circle class="st50" cx="-13.4" cy="366.1" r="0.1"/>
				<circle class="st50" cx="-12.3" cy="365.1" r="0.1"/>
				<circle class="st50" cx="-12.8" cy="364.7" r="0.1"/>
				<circle class="st50" cx="-12.3" cy="363.8" r="0.2"/>
				<circle class="st50" cx="-12" cy="364.6" r="0.2"/>
				<circle class="st50" cx="-12.1" cy="362.7" r="0.2"/>
				<circle class="st50" cx="-13.2" cy="361.1" r="0.1"/>
				<circle class="st50" cx="-15.9" cy="363" r="0.1"/>
				<circle class="st50" cx="-17.3" cy="363.4" r="0.1"/>
				<circle class="st50" cx="-18" cy="363" r="0.1"/>
				<circle class="st50" cx="-17.7" cy="364.2" r="0.2"/>
				<circle class="st50" cx="-17.2" cy="364.8" r="0.1"/>
				<circle class="st50" cx="-17.7" cy="364.8" r="0.1"/>
				<circle class="st50" cx="-17" cy="365.2" r="0.2"/>
			</g>
			<g>
				<circle class="st51" cx="-16.3" cy="363.6" r="0.2"/>
				<path class="st51" d="M-15.9,365.5c-0.1-0.1-0.2-0.3-0.1-0.4s0.3-0.2,0.4-0.1s0.2,0.3,0.1,0.4S-15.8,365.6-15.9,365.5z"/>
				<circle class="st51" cx="-13.6" cy="362.1" r="0.2"/>
				<path class="st51" d="M-13,363.7c-0.1-0.1-0.2-0.3-0.1-0.4s0.3-0.2,0.4-0.1s0.2,0.3,0.1,0.4C-12.7,363.7-12.9,363.8-13,363.7z"
					/>
				<circle class="st51" cx="-15.6" cy="362.6" r="0.2"/>
				<circle class="st51" cx="-17.1" cy="361.3" r="0.2"/>
				<path class="st51" d="M-18.5,363.2c-0.1-0.1-0.2-0.3-0.1-0.4s0.3-0.2,0.4-0.1s0.2,0.3,0.1,0.4
					C-18.2,363.3-18.3,363.3-18.5,363.2z"/>
				<path class="st51" d="M-14.8,367c-0.1-0.1-0.2-0.3-0.1-0.4s0.3-0.2,0.4-0.1s0.2,0.3,0.1,0.4C-14.5,367.1-14.7,367.1-14.8,367z"
					/>
				<path class="st51" d="M-14,365.6c-0.1-0.1-0.2-0.3-0.1-0.4s0.3-0.2,0.4-0.1s0.2,0.3,0.1,0.4C-13.7,365.7-13.9,365.7-14,365.6z"
					/>
				<path class="st51" d="M-17.6,364.9c-0.1-0.1-0.1-0.2-0.1-0.2c0.1-0.1,0.2-0.1,0.2-0.1l0.1,0.2
					C-17.4,364.9-17.5,364.9-17.6,364.9z"/>
				<path class="st51" d="M-11.6,364.7c-0.1-0.1-0.1-0.2-0.1-0.2c0.1-0.1,0.2-0.1,0.2-0.1c0.1,0.1,0.1,0.2,0.1,0.2
					C-11.3,364.7-11.4,364.8-11.6,364.7z"/>
				<path class="st51" d="M-15,360.8c-0.1-0.1-0.1-0.2-0.1-0.2c0.1-0.1,0.2-0.1,0.2-0.1c0.1,0.1,0.1,0.2,0.1,0.2
					C-14.8,360.9-14.9,360.9-15,360.8z"/>
				<circle class="st51" cx="-16.6" cy="364" r="0.1"/>
				<circle class="st51" cx="-17.7" cy="363.2" r="0.1"/>
				<path class="st51" d="M-18.3,363.9c-0.1,0-0.1-0.1,0-0.2c0-0.1,0.1-0.1,0.2,0c0.1,0,0.1,0.1,0,0.2S-18.2,364-18.3,363.9z"/>
				<path class="st51" d="M-16.6,364.7L-16.6,364.7C-16.6,364.8-16.7,364.8-16.6,364.7C-16.7,364.8-16.7,364.7-16.6,364.7
					C-16.7,364.7-16.7,364.7-16.6,364.7z"/>
				<circle class="st51" cx="-15.9" cy="365.8" r="0.1"/>
				<circle class="st51" cx="-16.7" cy="365.8" r="0.1"/>
				<circle class="st51" cx="-17.5" cy="365.5" r="0.1"/>
				<circle class="st51" cx="-17.2" cy="365.5" r="0.1"/>
				<circle class="st51" cx="-17.9" cy="364.5" r="0.1"/>
				<circle class="st51" cx="-16.9" cy="363.4" r="0.1"/>
				<path class="st51" d="M-14.4,363.9C-14.3,363.9-14.3,363.9-14.4,363.9c0,0.1,0,0.1-0.1,0.1C-14.4,364-14.4,363.9-14.4,363.9
					L-14.4,363.9z"/>
				<circle class="st51" cx="-12.9" cy="364.1" r="0.1"/>
				<circle class="st51" cx="-14.3" cy="361.2" r="0.1"/>
				<circle class="st51" cx="-17.1" cy="363.7" r="0.1"/>
				<circle class="st51" cx="-17.6" cy="362.5" r="0.1"/>
				<circle class="st51" cx="-17.3" cy="362.3" r="0.1"/>
				<circle class="st51" cx="-17.5" cy="361.7" r="0.1"/>
				<circle class="st51" cx="-16.4" cy="361.4" r="0.1"/>
				<path class="st51" d="M-16.2,362C-16.2,362.1-16.2,362.1-16.2,362c0,0.1,0,0.1-0.1,0.1C-16.3,362.1-16.3,362.1-16.2,362
					C-16.3,362-16.3,362-16.2,362z"/>
				<circle class="st51" cx="-15.3" cy="362.4" r="0.1"/>
				<circle class="st51" cx="-14.6" cy="363" r="0.1"/>
				<circle class="st51" cx="-14.5" cy="363.7" r="0"/>
				<circle class="st51" cx="-15.9" cy="363.4" r="0"/>
				<circle class="st51" cx="-15.1" cy="363.9" r="0"/>
				<circle class="st51" cx="-12.3" cy="364.4" r="0"/>
				<circle class="st51" cx="-11.8" cy="363.8" r="0"/>
				<circle class="st51" cx="-12.4" cy="363.2" r="0"/>
				<circle class="st51" cx="-12.8" cy="362.1" r="0"/>
				<path class="st51" d="M-14.4,364.9C-14.3,364.9-14.3,365-14.4,364.9C-14.4,365-14.4,365-14.4,364.9
					C-14.4,365-14.4,365-14.4,364.9L-14.4,364.9z"/>
				<circle class="st51" cx="-14.5" cy="364.6" r="0"/>
				<circle class="st51" cx="-13.2" cy="363.4" r="0"/>
				<path class="st51" d="M-13.5,362.9L-13.5,362.9C-13.5,363-13.5,363-13.5,362.9C-13.6,362.9-13.6,362.9-13.5,362.9
					C-13.6,362.9-13.5,362.9-13.5,362.9z"/>
				<circle class="st51" cx="-14.1" cy="362.1" r="0"/>
				<circle class="st51" cx="-14.4" cy="362.3" r="0"/>
				<path class="st51" d="M-14.3,361.6C-14.3,361.6-14.3,361.7-14.3,361.6C-14.3,361.7-14.3,361.7-14.3,361.6
					C-14.4,361.7-14.4,361.7-14.3,361.6L-14.3,361.6z"/>
				<circle class="st51" cx="-14" cy="361.4" r="0"/>
				<circle class="st51" cx="-15.7" cy="361.7" r="0"/>
				<circle class="st51" cx="-13.3" cy="363.9" r="0"/>
				<circle class="st51" cx="-13.3" cy="364.5" r="0"/>
				<circle class="st51" cx="-13.9" cy="364.5" r="0"/>
				<circle class="st51" cx="-13.7" cy="365.2" r="0"/>
				<circle class="st51" cx="-13.4" cy="365.1" r="0"/>
				<circle class="st51" cx="-14" cy="366" r="0"/>
				<circle class="st51" cx="-14.4" cy="365.6" r="0"/>
				<path class="st51" d="M-15.8,366.1L-15.8,366.1C-15.8,366.2-15.9,366.2-15.8,366.1C-15.9,366.2-15.9,366.1-15.8,366.1
					C-15.9,366.1-15.9,366.1-15.8,366.1z"/>
				<circle class="st51" cx="-16.6" cy="366.3" r="0"/>
				<circle class="st51" cx="-16.7" cy="366.2" r="0"/>
				<circle class="st51" cx="-15.4" cy="366.4" r="0"/>
				<path class="st51" d="M-15,366.8L-15,366.8C-15,366.9-15.1,366.9-15,366.8C-15.1,366.9-15.1,366.8-15,366.8
					C-15.1,366.8-15.1,366.8-15,366.8z"/>
				<path class="st51" d="M-13.9,365.8C-13.8,365.8-13.8,365.8-13.9,365.8C-13.9,365.9-13.9,365.9-13.9,365.8
					C-14,365.9-14,365.8-13.9,365.8L-13.9,365.8z"/>
				<circle class="st51" cx="-16.5" cy="365.3" r="0.1"/>
				<path class="st51" d="M-15.8,365.3L-15.8,365.3C-15.8,365.2-15.8,365.2-15.8,365.3C-15.7,365.2-15.7,365.3-15.8,365.3
					L-15.8,365.3z"/>
				<circle class="st51" cx="-15.3" cy="365.1" r="0"/>
				<circle class="st51" cx="-15.5" cy="365.3" r="0"/>
				<circle class="st51" cx="-15.5" cy="364.4" r="0.1"/>
				<path class="st51" d="M-12.8,365.3c-0.1,0-0.1-0.1,0-0.1c0-0.1,0.1-0.1,0.1,0C-12.6,365.2-12.6,365.3-12.8,365.3
					C-12.7,365.3-12.7,365.3-12.8,365.3z"/>
				<circle class="st51" cx="-12.4" cy="362.7" r="0.1"/>
				<circle class="st51" cx="-13" cy="362.7" r="0.1"/>
				<path class="st51" d="M-13.4,361.4c-0.1,0-0.1-0.1,0-0.1c0-0.1,0.1-0.1,0.1,0C-13.2,361.3-13.2,361.4-13.4,361.4
					C-13.3,361.4-13.3,361.4-13.4,361.4z"/>
			</g>
			<g>
				<ellipse class="st49" cx="-17.1" cy="364.8" rx="0.5" ry="0.5"/>
				<circle class="st49" cx="-15.3" cy="364.6" r="0.2"/>
				<circle class="st49" cx="-15.5" cy="365.8" r="0.2"/>
				<path class="st49" d="M-14.8,365.7c-0.1,0-0.1,0-0.1-0.1s0-0.1,0.1-0.1s0.1,0,0.1,0.1L-14.8,365.7z"/>
				<circle class="st49" cx="-14.6" cy="366.4" r="0.2"/>
				<circle class="st49" cx="-14.1" cy="366" r="0.1"/>
				<circle class="st49" cx="-13.6" cy="364.8" r="0.2"/>
				<circle class="st49" cx="-14.4" cy="365.2" r="0.1"/>
				<circle class="st49" cx="-14.2" cy="363.9" r="0.4"/>
				<circle class="st49" cx="-15" cy="363.5" r="0.1"/>
				<circle class="st49" cx="-15.8" cy="363.7" r="0.1"/>
				<circle class="st49" cx="-16.1" cy="364.5" r="0.1"/>
				<circle class="st49" cx="-16.6" cy="365.9" r="0.2"/>
				<circle class="st49" cx="-16.6" cy="363.7" r="0.1"/>
				<circle class="st49" cx="-17.4" cy="362.5" r="0.5"/>
				<circle class="st49" cx="-16.8" cy="361.4" r="0.2"/>
				<circle class="st49" cx="-15.8" cy="361.9" r="0.1"/>
				<path class="st49" d="M-18,363.9c-0.1,0.1-0.3,0-0.3-0.1c-0.1-0.1,0-0.3,0.1-0.3s0.3,0,0.3,0.1C-17.8,363.8-17.8,363.9-18,363.9
					z"/>
				<circle class="st49" cx="-18" cy="365.4" r="0.2"/>
				<circle class="st49" cx="-16.5" cy="366.7" r="0.2"/>
				<circle class="st49" cx="-15.3" cy="367" r="0.1"/>
				<circle class="st49" cx="-13.3" cy="366.4" r="0.2"/>
				<circle class="st49" cx="-12.8" cy="365.3" r="0.2"/>
				<circle class="st49" cx="-12.4" cy="363.4" r="0.2"/>
				<circle class="st49" cx="-12.3" cy="364.5" r="0.1"/>
				<circle class="st49" cx="-13.1" cy="362.8" r="0.1"/>
				<circle class="st49" cx="-13.2" cy="363.9" r="0.1"/>
				<circle class="st49" cx="-13.8" cy="362.7" r="0.1"/>
				<circle class="st49" cx="-15.2" cy="362.6" r="0.3"/>
				<circle class="st49" cx="-14.9" cy="361.9" r="0.2"/>
				<circle class="st49" cx="-14.6" cy="361.1" r="0.2"/>
				<circle class="st49" cx="-15.5" cy="360.9" r="0.1"/>
				<circle class="st49" cx="-16.5" cy="362.4" r="0.1"/>
				<circle class="st49" cx="-14" cy="361.6" r="0.1"/>
				<path class="st49" d="M-12.8,361.5c-0.1,0-0.1,0-0.1-0.1s0-0.1,0.1-0.1s0.1,0,0.1,0.1S-12.8,361.5-12.8,361.5z"/>
				<circle class="st49" cx="-13.3" cy="362.1" r="0.1"/>
				<circle class="st49" cx="-12.3" cy="362" r="0.1"/>
				<path class="st49" d="M-12.1,362.6L-12.1,362.6C-12.1,362.5-12.1,362.5-12.1,362.6C-12.1,362.5-12,362.5-12.1,362.6
					C-12,362.5-12,362.6-12.1,362.6z"/>
				<circle class="st49" cx="-13.5" cy="360.7" r="0.2"/>
				<circle class="st49" cx="-11.7" cy="363" r="0.3"/>
				<circle class="st49" cx="-12" cy="364.2" r="0.1"/>
			</g>
			<g>
				<path class="st50" d="M-16,363c-0.1,0-0.2,0-0.2-0.1s0-0.2,0.1-0.2c0.1,0,0.2,0,0.2,0.1S-16,363-16,363z"/>
				<circle class="st50" cx="-15.4" cy="363.4" r="0.1"/>
				<path class="st50" d="M-15.3,364.2c-0.1,0-0.2,0-0.2-0.1s0-0.2,0.1-0.2s0.2,0,0.2,0.1C-15.1,364.1-15.2,364.1-15.3,364.2z"/>
				<circle class="st50" cx="-14.8" cy="364.2" r="0.1"/>
				<path class="st50" d="M-14.8,365.4c-0.1,0.1-0.3,0-0.4-0.2c-0.1-0.1,0-0.3,0.2-0.4c0.1-0.1,0.3,0,0.4,0.2
					C-14.7,365.2-14.7,365.3-14.8,365.4z"/>
				<path class="st50" d="M-16,365.5c-0.1,0-0.1,0-0.2-0.1c0-0.1,0-0.1,0.1-0.2c0.1,0,0.1,0,0.2,0.1S-15.9,365.5-16,365.5z"/>
				<path class="st50" d="M-15.8,366c-0.1,0-0.2,0-0.2-0.1s0-0.2,0.1-0.2s0.2,0,0.2,0.1S-15.8,366-15.8,366z"/>
				<circle class="st50" cx="-16.3" cy="364.8" r="0.1"/>
				<circle class="st50" cx="-16.7" cy="364" r="0.2"/>
				<path class="st50" d="M-17.5,364.4c-0.1,0-0.2,0-0.2-0.1s0-0.2,0.1-0.2s0.2,0,0.2,0.1S-17.5,364.4-17.5,364.4z"/>
				<path class="st50" d="M-16.9,364.8c-0.1,0-0.2,0-0.2-0.1s0-0.2,0.1-0.2s0.2,0,0.2,0.1C-16.7,364.7-16.8,364.8-16.9,364.8z"/>
				<circle class="st50" cx="-17" cy="363.5" r="0.2"/>
				<circle class="st50" cx="-16.7" cy="362.7" r="0.2"/>
				<circle class="st50" cx="-16.1" cy="361.7" r="0.1"/>
				<path class="st50" d="M-15.1,361.5c-0.1,0-0.1,0-0.2-0.1c0-0.1,0-0.1,0.1-0.2c0.1,0,0.1,0,0.2,0.1
					C-15,361.4-15.1,361.4-15.1,361.5z"/>
				<circle class="st50" cx="-14.3" cy="362.6" r="0.3"/>
				<circle class="st50" cx="-14.6" cy="363.1" r="0.1"/>
				<circle class="st50" cx="-13.9" cy="363.2" r="0.1"/>
				<path class="st50" d="M-13.1,363.6c-0.1,0-0.2,0-0.2-0.1s0-0.2,0.1-0.2s0.2,0,0.2,0.1C-12.9,363.5-13,363.5-13.1,363.6z"/>
				<circle class="st50" cx="-13.7" cy="364.5" r="0.1"/>
				<circle class="st50" cx="-13.6" cy="365.4" r="0.2"/>
				<path class="st50" d="M-13.9,366.4c-0.1,0-0.2,0-0.2-0.1s0-0.2,0.1-0.2s0.2,0,0.2,0.1S-13.8,366.4-13.9,366.4z"/>
				<circle class="st50" cx="-14.6" cy="366.9" r="0.1"/>
				<circle class="st50" cx="-12.8" cy="364.6" r="0.1"/>
				<path class="st50" d="M-12,365.3c-0.1,0.1-0.2,0-0.3-0.1s0-0.2,0.1-0.3c0.1-0.1,0.2,0,0.3,0.1C-11.8,365.1-11.9,365.2-12,365.3z
					"/>
				<circle class="st50" cx="-12.1" cy="363.8" r="0.1"/>
				<circle class="st50" cx="-12.3" cy="362.4" r="0.1"/>
				<path class="st50" d="M-12.9,362.6c-0.1,0-0.1,0-0.2-0.1c0-0.1,0-0.1,0.1-0.2c0.1,0,0.1,0,0.2,0.1
					C-12.8,362.6-12.8,362.6-12.9,362.6z"/>
				<circle class="st50" cx="-13.4" cy="361.5" r="0.2"/>
				<circle class="st50" cx="-12.5" cy="361.8" r="0.2"/>
				<circle class="st50" cx="-14.2" cy="360.9" r="0.2"/>
				<circle class="st50" cx="-16.1" cy="360.7" r="0.1"/>
				<circle class="st50" cx="-16.1" cy="364.1" r="0.1"/>
				<circle class="st50" cx="-16.7" cy="365.4" r="0.1"/>
				<circle class="st50" cx="-17.3" cy="365.8" r="0.1"/>
				<circle class="st50" cx="-16.2" cy="366.3" r="0.2"/>
				<circle class="st50" cx="-15.4" cy="366.2" r="0.1"/>
				<circle class="st50" cx="-15.7" cy="366.6" r="0.1"/>
				<circle class="st50" cx="-15" cy="366.3" r="0.2"/>
			</g>
			<g>
				<circle class="st51" cx="-15.8" cy="364.7" r="0.2"/>
				<path class="st51" d="M-14.1,365.5c-0.1,0.1-0.3,0-0.4-0.2c-0.1-0.1,0-0.3,0.2-0.4c0.1-0.1,0.3,0,0.4,0.2
					C-13.9,365.3-14,365.5-14.1,365.5z"/>
				<circle class="st51" cx="-15.5" cy="361.6" r="0.2"/>
				<path class="st51" d="M-13.9,362.1c-0.2,0.1-0.3,0-0.4-0.2s0-0.3,0.2-0.4s0.3,0,0.4,0.2C-13.7,361.9-13.7,362.1-13.9,362.1z"/>
				<path class="st51" d="M-16.2,363.8c-0.1,0.1-0.2,0-0.3-0.1c-0.1-0.1,0-0.2,0.1-0.3c0.1-0.1,0.2,0,0.3,0.1
					S-16.1,363.8-16.2,363.8z"/>
				<path class="st51" d="M-18.1,364.3c-0.1,0.1-0.2,0-0.3-0.1c-0.1-0.1,0-0.2,0.1-0.3c0.1-0.1,0.2,0,0.3,0.1
					C-18,364.1-18,364.2-18.1,364.3z"/>
				<path class="st51" d="M-17.4,366.3c-0.2,0.1-0.3,0-0.4-0.2s0-0.3,0.2-0.4s0.3,0,0.4,0.2C-17.2,366.1-17.3,366.2-17.4,366.3z"/>
				<path class="st51" d="M-12.2,365.5c-0.2,0.1-0.3,0-0.4-0.2s0-0.3,0.2-0.4s0.3,0,0.4,0.2C-12,365.3-12.1,365.5-12.2,365.5z"/>
				<path class="st51" d="M-12.9,364.1c-0.2,0.1-0.3,0-0.4-0.2s0-0.3,0.2-0.4s0.3,0,0.4,0.2C-12.7,363.9-12.7,364-12.9,364.1z"/>
				<circle class="st51" cx="-15.7" cy="366.4" r="0.2"/>
				<path class="st51" d="M-12.2,361.5c-0.1,0-0.2,0-0.2-0.1s0-0.2,0.1-0.2s0.2,0,0.2,0.1C-12,361.4-12.1,361.5-12.2,361.5z"/>
				<path class="st51" d="M-17.3,362.1c-0.1,0-0.2,0-0.2-0.1s0-0.2,0.1-0.2s0.2,0,0.2,0.1C-17.2,361.9-17.2,362-17.3,362.1z"/>
				<circle class="st51" cx="-15.7" cy="365.2" r="0.1"/>
				<circle class="st51" cx="-17" cy="365.7" r="0.1"/>
				<circle class="st51" cx="-16.8" cy="366.5" r="0.1"/>
				<circle class="st51" cx="-15.2" cy="365.7" r="0.1"/>
				<circle class="st51" cx="-13.8" cy="365.8" r="0.1"/>
				<circle class="st51" cx="-14.3" cy="366.4" r="0.1"/>
				<circle class="st51" cx="-15" cy="366.8" r="0.1"/>
				<circle class="st51" cx="-14.9" cy="366.6" r="0.1"/>
				<circle class="st51" cx="-16.1" cy="366.6" r="0.1"/>
				<circle class="st51" cx="-16.3" cy="365.1" r="0.1"/>
				<circle class="st51" cx="-14.5" cy="363.4" r="0.1"/>
				<circle class="st51" cx="-13.5" cy="362.2" r="0.1"/>
				<circle class="st51" cx="-16.7" cy="361.7" r="0.1"/>
				<path class="st51" d="M-16.3,365.4C-16.2,365.4-16.2,365.4-16.3,365.4c0.1,0.1,0.1,0.1,0.1,0.1S-16.3,365.5-16.3,365.4
					C-16.3,365.5-16.3,365.4-16.3,365.4z"/>
				<circle class="st51" cx="-17.5" cy="365.1" r="0.1"/>
				<circle class="st51" cx="-17.5" cy="364.8" r="0.1"/>
				<path class="st51" d="M-18.1,364.5C-18.1,364.5-18,364.5-18.1,364.5c0.1,0.1,0.1,0.1,0.1,0.1C-18.1,364.6-18.1,364.6-18.1,364.5
					C-18.2,364.6-18.1,364.5-18.1,364.5z"/>
				<path class="st51" d="M-17.7,363.5L-17.7,363.5c0.1,0.1,0.1,0.1,0.1,0.1S-17.8,363.6-17.7,363.5
					C-17.8,363.5-17.8,363.5-17.7,363.5z"/>
				<circle class="st51" cx="-17.1" cy="363.8" r="0.1"/>
				<circle class="st51" cx="-16.3" cy="363.2" r="0.1"/>
				<circle class="st51" cx="-15.4" cy="363" r="0.1"/>
				<path class="st51" d="M-14.8,363.3C-14.7,363.3-14.7,363.3-14.8,363.3C-14.7,363.4-14.7,363.4-14.8,363.3
					C-14.8,363.4-14.8,363.4-14.8,363.3L-14.8,363.3z"/>
				<circle class="st51" cx="-15.8" cy="364.3" r="0"/>
				<path class="st51" d="M-15,363.9C-15,363.9-14.9,363.9-15,363.9C-14.9,364-14.9,364-15,363.9C-15,364-15,364-15,363.9
					C-15,364-15,363.9-15,363.9z"/>
				<path class="st51" d="M-12.8,361.9L-12.8,361.9C-12.8,361.9-12.8,362-12.8,361.9C-12.8,362-12.9,362-12.8,361.9
					C-12.9,361.9-12.9,361.9-12.8,361.9z"/>
				<path class="st51" d="M-13.1,361.1C-13,361.1-13,361.1-13.1,361.1C-13,361.2-13,361.2-13.1,361.1
					C-13.1,361.2-13.1,361.2-13.1,361.1C-13.1,361.2-13.1,361.1-13.1,361.1z"/>
				<circle class="st51" cx="-13.9" cy="361.4" r="0"/>
				<circle class="st51" cx="-15" cy="361" r="0"/>
				<path class="st51" d="M-13.6,363.9L-13.6,363.9C-13.6,364-13.6,364-13.6,363.9C-13.6,364-13.7,364-13.6,363.9
					C-13.7,364-13.7,364-13.6,363.9z"/>
				<path class="st51" d="M-14,363.8C-14,363.8-13.9,363.8-14,363.8C-13.9,363.9-13.9,363.9-14,363.8C-14,363.9-14,363.9-14,363.8
					L-14,363.8z"/>
				<circle class="st51" cx="-14.2" cy="362.1" r="0"/>
				<circle class="st51" cx="-14.8" cy="362.1" r="0"/>
				<circle class="st51" cx="-15.8" cy="362.1" r="0"/>
				<circle class="st51" cx="-15.8" cy="362.5" r="0"/>
				<circle class="st51" cx="-16.3" cy="362" r="0"/>
				<path class="st51" d="M-16.3,361.5L-16.3,361.5C-16.3,361.5-16.3,361.6-16.3,361.5C-16.3,361.6-16.4,361.6-16.3,361.5
					C-16.4,361.5-16.3,361.5-16.3,361.5z"/>
				<circle class="st51" cx="-17" cy="363.1" r="0"/>
				<path class="st51" d="M-13.9,362.4C-13.8,362.4-13.8,362.4-13.9,362.4C-13.8,362.5-13.8,362.5-13.9,362.4
					C-13.9,362.5-13.9,362.5-13.9,362.4L-13.9,362.4z"/>
				<path class="st51" d="M-13.4,362.8L-13.4,362.8C-13.4,362.8-13.4,362.9-13.4,362.8C-13.4,362.9-13.5,362.9-13.4,362.8
					C-13.5,362.8-13.4,362.8-13.4,362.8z"/>
				<circle class="st51" cx="-13.7" cy="363.4" r="0"/>
				<circle class="st51" cx="-13.1" cy="363.6" r="0"/>
				<circle class="st51" cx="-12.9" cy="363.3" r="0"/>
				<path class="st51" d="M-12.6,364.3L-12.6,364.3C-12.6,364.3-12.6,364.4-12.6,364.3C-12.6,364.4-12.6,364.4-12.6,364.3
					L-12.6,364.3z"/>
				<circle class="st51" cx="-13.1" cy="364.4" r="0"/>
				<path class="st51" d="M-13.6,365.9C-13.6,365.9-13.5,365.9-13.6,365.9C-13.5,365.9-13.5,365.9-13.6,365.9L-13.6,365.9
					L-13.6,365.9z"/>
				<circle class="st51" cx="-13.8" cy="366.6" r="0"/>
				<path class="st51" d="M-14.1,366.5C-14,366.5-14,366.5-14.1,366.5C-14,366.6-14,366.6-14.1,366.5
					C-14.1,366.6-14.1,366.6-14.1,366.5C-14.1,366.6-14.1,366.5-14.1,366.5z"/>
				<path class="st51" d="M-13.1,365.6C-13.1,365.6-13,365.6-13.1,365.6C-13,365.6-13,365.6-13.1,365.6L-13.1,365.6L-13.1,365.6z"/>
				<circle class="st51" cx="-12.5" cy="365.6" r="0"/>
				<path class="st51" d="M-12.7,364.1C-12.6,364.1-12.6,364.1-12.7,364.1C-12.6,364.1-12.6,364.2-12.7,364.1
					C-12.7,364.2-12.7,364.2-12.7,364.1L-12.7,364.1z"/>
				<circle class="st51" cx="-14.6" cy="365.9" r="0.1"/>
				<circle class="st51" cx="-14.2" cy="365.3" r="0.1"/>
				<path class="st51" d="M-14,364.8C-14.1,364.8-14.1,364.8-14,364.8C-14.1,364.7-14.1,364.7-14,364.8C-14,364.7-14,364.7-14,364.8
					L-14,364.8z"/>
				<circle class="st51" cx="-14" cy="365.1" r="0"/>
				<circle class="st51" cx="-14.7" cy="364.6" r="0.1"/>
				<circle class="st51" cx="-12.5" cy="362.8" r="0.1"/>
				<circle class="st51" cx="-14.3" cy="361" r="0.1"/>
				<circle class="st51" cx="-14.6" cy="361.5" r="0.1"/>
				<path class="st51" d="M-16,361.1c-0.1,0-0.1,0-0.1-0.1s0-0.1,0.1-0.1s0.1,0,0.1,0.1C-15.9,361-15.9,361.1-16,361.1z"/>
			</g>
			<g>
				<ellipse class="st49" cx="-14.6" cy="366.1" rx="0.5" ry="0.5"/>
				<circle class="st49" cx="-14.3" cy="364.4" r="0.2"/>
				<circle class="st49" cx="-13.2" cy="364.9" r="0.2"/>
				<circle class="st49" cx="-13.2" cy="364.2" r="0.1"/>
				<circle class="st49" cx="-12.4" cy="364.2" r="0.2"/>
				<circle class="st49" cx="-12.6" cy="363.6" r="0.1"/>
				<circle class="st49" cx="-13.5" cy="362.7" r="0.2"/>
				<circle class="st49" cx="-13.4" cy="363.7" r="0.1"/>
				<circle class="st49" cx="-14.6" cy="363.1" r="0.4"/>
				<circle class="st49" cx="-15.3" cy="363.7" r="0.1"/>
				<circle class="st49" cx="-15.3" cy="364.5" r="0.1"/>
				<circle class="st49" cx="-14.6" cy="365.1" r="0.1"/>
				<path class="st49" d="M-13.3,366c0,0.1-0.1,0.2-0.2,0.2s-0.2-0.1-0.2-0.2s0.1-0.2,0.2-0.2C-13.4,365.8-13.3,365.8-13.3,366z"/>
				<circle class="st49" cx="-15.5" cy="365.2" r="0.1"/>
				<circle class="st49" cx="-17" cy="365.7" r="0.5"/>
				<circle class="st49" cx="-17.8" cy="364.7" r="0.2"/>
				<path class="st49" d="M-16.8,363.9c0,0.1-0.1,0.1-0.1,0.1c-0.1,0-0.1-0.1-0.1-0.1c0-0.1,0.1-0.1,0.1-0.1S-16.8,363.8-16.8,363.9
					z"/>
				<circle class="st49" cx="-16" cy="366.7" r="0.2"/>
				<circle class="st49" cx="-14.4" cy="367.1" r="0.2"/>
				<path class="st49" d="M-12.5,366.1c0,0.1-0.1,0.2-0.2,0.2s-0.2-0.1-0.2-0.2s0.1-0.2,0.2-0.2S-12.5,366.1-12.5,366.1z"/>
				<path class="st49" d="M-11.9,365.1c0,0.1-0.1,0.1-0.1,0.1l-0.1-0.1c0-0.1,0.1-0.1,0.1-0.1S-11.9,365-11.9,365.1z"/>
				<circle class="st49" cx="-11.9" cy="363" r="0.2"/>
				<path class="st49" d="M-12.6,362.2c0,0.1-0.1,0.2-0.2,0.2s-0.2-0.1-0.2-0.2s0.1-0.2,0.2-0.2S-12.7,362.1-12.6,362.2z"/>
				<circle class="st49" cx="-14.5" cy="361.2" r="0.2"/>
				<circle class="st49" cx="-13.4" cy="361.5" r="0.1"/>
				<circle class="st49" cx="-15.3" cy="361.7" r="0.1"/>
				<path class="st49" d="M-14.1,362.1c0,0.1-0.1,0.1-0.1,0.1c-0.1,0-0.1-0.1-0.1-0.1c0-0.1,0.1-0.1,0.1-0.1
					C-14.1,362-14.1,362-14.1,362.1z"/>
				<circle class="st49" cx="-15.6" cy="362.3" r="0.1"/>
				<circle class="st49" cx="-16.1" cy="363.6" r="0.3"/>
				<circle class="st49" cx="-16.7" cy="363.1" r="0.2"/>
				<circle class="st49" cx="-17.3" cy="362.5" r="0.2"/>
				<path class="st49" d="M-17.7,363.4c0,0.1-0.1,0.1-0.1,0.1c-0.1,0-0.1-0.1-0.1-0.1l0.1-0.1C-17.8,363.3-17.7,363.3-17.7,363.4z"
					/>
				<path class="st49" d="M-16.7,364.7C-16.7,364.8-16.7,364.8-16.7,364.7C-16.8,364.8-16.8,364.7-16.7,364.7L-16.7,364.7
					L-16.7,364.7z"/>
				<path class="st49" d="M-16.6,362.2c0,0.1,0,0.1-0.1,0.1s-0.1,0-0.1-0.1s0-0.1,0.1-0.1C-16.7,362.1-16.6,362.1-16.6,362.2z"/>
				<circle class="st49" cx="-16.5" cy="361" r="0.1"/>
				<circle class="st49" cx="-16" cy="361.6" r="0.1"/>
				<path class="st49" d="M-15.7,360.7c0,0.1-0.1,0.1-0.1,0.1c-0.1,0-0.1-0.1-0.1-0.1c0-0.1,0.1-0.1,0.1-0.1
					C-15.7,360.5-15.7,360.6-15.7,360.7z"/>
				<circle class="st49" cx="-15.2" cy="360.6" r="0.1"/>
				<circle class="st49" cx="-17.4" cy="361.4" r="0.2"/>
				<circle class="st49" cx="-14.7" cy="360.4" r="0.3"/>
				<circle class="st49" cx="-13.5" cy="361.1" r="0.1"/>
			</g>
			<g>
				<path class="st50" d="M-16,364.5c0,0.1-0.1,0.1-0.1,0.2c-0.1,0-0.1-0.1-0.2-0.1c0-0.1,0.1-0.1,0.1-0.2
					C-16.1,364.4-16,364.5-16,364.5z"/>
				<circle class="st50" cx="-15.5" cy="364.1" r="0.1"/>
				<path class="st50" d="M-14.7,364.1c0,0.1-0.1,0.1-0.1,0.2c-0.1,0-0.1-0.1-0.2-0.1c0-0.1,0.1-0.1,0.1-0.2
					C-14.7,364-14.7,364.1-14.7,364.1z"/>
				<circle class="st50" cx="-14.5" cy="363.8" r="0.1"/>
				<path class="st50" d="M-13.3,364.2c0,0.2-0.1,0.3-0.3,0.3s-0.3-0.1-0.3-0.3c0-0.2,0.1-0.3,0.3-0.3
					C-13.5,363.9-13.4,364-13.3,364.2z"/>
				<path class="st50" d="M-13.6,365.2c0,0.1-0.1,0.1-0.1,0.1c-0.1,0-0.1-0.1-0.1-0.1c0-0.1,0.1-0.1,0.1-0.1L-13.6,365.2z"/>
				<circle class="st50" cx="-13.3" cy="365.3" r="0.1"/>
				<circle class="st50" cx="-14.4" cy="365.3" r="0.1"/>
				<circle class="st50" cx="-15.3" cy="365.5" r="0.2"/>
				<path class="st50" d="M-15.1,366.4c0,0.1-0.1,0.2-0.2,0.2s-0.2-0.1-0.2-0.2s0.1-0.2,0.2-0.2S-15.2,366.3-15.1,366.4z"/>
				<circle class="st50" cx="-14.8" cy="365.9" r="0.2"/>
				<circle class="st50" cx="-15.9" cy="365.5" r="0.2"/>
				<circle class="st50" cx="-16.5" cy="365.1" r="0.2"/>
				<circle class="st50" cx="-17.3" cy="364.2" r="0.1"/>
				<circle class="st50" cx="-17.3" cy="363.2" r="0.1"/>
				<circle class="st50" cx="-15.8" cy="362.8" r="0.3"/>
				<circle class="st50" cx="-15.4" cy="363.1" r="0.1"/>
				<circle class="st50" cx="-15.2" cy="362.6" r="0.1"/>
				<path class="st50" d="M-14.5,361.9c0,0.1-0.1,0.2-0.2,0.2s-0.2-0.1-0.2-0.2s0.1-0.2,0.2-0.2S-14.5,361.8-14.5,361.9z"/>
				<circle class="st50" cx="-13.8" cy="362.8" r="0.1"/>
				<circle class="st50" cx="-13" cy="362.9" r="0.2"/>
				<path class="st50" d="M-12.1,363.6c0,0.1-0.1,0.2-0.2,0.2s-0.2-0.1-0.2-0.2s0.1-0.2,0.2-0.2C-12.2,363.5-12.1,363.5-12.1,363.6z
					"/>
				<circle class="st50" cx="-11.9" cy="364.4" r="0.1"/>
				<circle class="st50" cx="-13.5" cy="361.9" r="0.1"/>
				<path class="st50" d="M-12.6,361.4c0,0.1-0.1,0.2-0.2,0.2s-0.2-0.1-0.2-0.2s0.1-0.2,0.2-0.2S-12.6,361.3-12.6,361.4z"/>
				<circle class="st50" cx="-14" cy="361.1" r="0.1"/>
				<circle class="st50" cx="-15.4" cy="360.8" r="0.1"/>
				<circle class="st50" cx="-15.5" cy="361.5" r="0.1"/>
				<path class="st50" d="M-16.4,361.5c0,0.1-0.1,0.2-0.2,0.2s-0.2-0.1-0.2-0.2s0.1-0.2,0.2-0.2C-16.4,361.4-16.4,361.4-16.4,361.5z
					"/>
				<circle class="st50" cx="-16" cy="360.8" r="0.2"/>
				<path class="st50" d="M-17.3,362.1c0,0.1-0.1,0.2-0.2,0.2s-0.2-0.1-0.2-0.2s0.1-0.2,0.2-0.2C-17.4,361.9-17.3,362-17.3,362.1z"
					/>
				<circle class="st50" cx="-18.2" cy="363.8" r="0.1"/>
				<circle class="st50" cx="-15.1" cy="365" r="0.1"/>
				<circle class="st50" cx="-13.9" cy="365.9" r="0.1"/>
				<circle class="st50" cx="-13.8" cy="366.6" r="0.1"/>
				<circle class="st50" cx="-13" cy="365.7" r="0.2"/>
				<circle class="st50" cx="-12.8" cy="364.9" r="0.1"/>
				<path class="st50" d="M-12.4,365.3c0,0.1-0.1,0.1-0.1,0.1c-0.1,0-0.1-0.1-0.1-0.1l0.1-0.1C-12.4,365.2-12.4,365.3-12.4,365.3z"
					/>
				<circle class="st50" cx="-12.6" cy="364.6" r="0.2"/>
			</g>
			<g>
				<circle class="st51" cx="-14.3" cy="364.9" r="0.2"/>
				<path class="st51" d="M-13,363.5c0,0.2-0.1,0.3-0.3,0.3s-0.3-0.1-0.3-0.3c0-0.2,0.1-0.3,0.3-0.3S-13,363.3-13,363.5z"/>
				<path class="st51" d="M-16.9,363.5c0,0.1-0.1,0.2-0.2,0.2s-0.2-0.1-0.2-0.2s0.1-0.2,0.2-0.2C-17,363.3-16.9,363.4-16.9,363.5z"
					/>
				<path class="st51" d="M-16.1,362.2c0,0.2-0.1,0.3-0.3,0.3c-0.2,0-0.3-0.1-0.3-0.3c0-0.2,0.1-0.3,0.3-0.3
					C-16.3,361.9-16.1,362-16.1,362.2z"/>
				<path class="st51" d="M-15.3,364.9c0,0.1-0.1,0.2-0.2,0.2s-0.2-0.1-0.2-0.2s0.1-0.2,0.2-0.2S-15.3,364.8-15.3,364.9z"/>
				<path class="st51" d="M-15.5,366.9c0,0.1-0.1,0.2-0.2,0.2s-0.2-0.1-0.2-0.2s0.1-0.2,0.2-0.2S-15.5,366.8-15.5,366.9z"/>
				<path class="st51" d="M-13.3,366.9c0,0.2-0.1,0.3-0.3,0.3s-0.3-0.1-0.3-0.3c0-0.2,0.1-0.3,0.3-0.3
					C-13.5,366.6-13.4,366.8-13.3,366.9z"/>
				<path class="st51" d="M-12.4,361.7c0,0.2-0.1,0.3-0.3,0.3s-0.3-0.1-0.3-0.3c0-0.2,0.1-0.3,0.3-0.3
					C-12.6,361.4-12.4,361.6-12.4,361.7z"/>
				<path class="st51" d="M-14,361.9c0,0.2-0.1,0.3-0.3,0.3s-0.3-0.1-0.3-0.3c0-0.2,0.1-0.3,0.3-0.3C-14.1,361.6-14,361.7-14,361.9z
					"/>
				<path class="st51" d="M-12.5,365.2c0,0.1-0.1,0.2-0.2,0.2s-0.2-0.1-0.2-0.2s0.1-0.2,0.2-0.2C-12.6,365.1-12.5,365.2-12.5,365.2z
					"/>
				<path class="st51" d="M-16.2,360.4c0,0.1-0.1,0.2-0.2,0.2c-0.1,0-0.2-0.1-0.2-0.2s0.1-0.2,0.2-0.2
					C-16.3,360.2-16.2,360.3-16.2,360.4z"/>
				<path class="st51" d="M-17.3,365.4c0,0.1-0.1,0.2-0.2,0.2s-0.2-0.1-0.2-0.2s0.1-0.2,0.2-0.2C-17.4,365.3-17.3,365.3-17.3,365.4z
					"/>
				<circle class="st51" cx="-13.8" cy="364.9" r="0.1"/>
				<circle class="st51" cx="-13.8" cy="366.3" r="0.1"/>
				<circle class="st51" cx="-13" cy="366.3" r="0.1"/>
				<circle class="st51" cx="-13.2" cy="364.5" r="0.1"/>
				<circle class="st51" cx="-12.7" cy="363.3" r="0.1"/>
				<circle class="st51" cx="-12.3" cy="363.9" r="0.1"/>
				<path class="st51" d="M-12.1,364.7L-12.1,364.7C-12,364.6-12,364.7-12.1,364.7C-12,364.7-12,364.8-12.1,364.7
					C-12.1,364.8-12.1,364.8-12.1,364.7z"/>
				<circle class="st51" cx="-12.3" cy="364.6" r="0.1"/>
				<path class="st51" d="M-12.7,365.7C-12.7,365.7-12.7,365.6-12.7,365.7C-12.6,365.6-12.6,365.7-12.7,365.7
					C-12.6,365.7-12.6,365.8-12.7,365.7C-12.7,365.8-12.7,365.7-12.7,365.7z"/>
				<path class="st51" d="M-14.2,365.5C-14.2,365.5-14.1,365.4-14.2,365.5C-14.1,365.4-14.1,365.5-14.2,365.5
					C-14.1,365.5-14.1,365.5-14.2,365.5C-14.1,365.5-14.2,365.5-14.2,365.5z"/>
				<circle class="st51" cx="-15.1" cy="363.2" r="0.1"/>
				<circle class="st51" cx="-15.9" cy="361.9" r="0.1"/>
				<circle class="st51" cx="-17.4" cy="364.7" r="0.1"/>
				<circle class="st51" cx="-13.7" cy="365.5" r="0.1"/>
				<circle class="st51" cx="-14.5" cy="366.6" r="0.1"/>
				<circle class="st51" cx="-14.8" cy="366.5" r="0.1"/>
				<path class="st51" d="M-15.2,367C-15.2,366.9-15.2,366.9-15.2,367C-15.1,366.9-15.1,367-15.2,367C-15.1,367-15.1,367-15.2,367
					L-15.2,367z"/>
				<path class="st51" d="M-16.1,366.3C-16.1,366.3-16.1,366.2-16.1,366.3C-16,366.2-16,366.3-16.1,366.3
					C-16,366.3-16,366.3-16.1,366.3L-16.1,366.3z"/>
				<circle class="st51" cx="-15.6" cy="365.8" r="0.1"/>
				<circle class="st51" cx="-15.9" cy="364.8" r="0.1"/>
				<path class="st51" d="M-15.8,363.9C-15.8,363.9-15.8,363.8-15.8,363.9C-15.7,363.8-15.7,363.9-15.8,363.9L-15.8,363.9
					L-15.8,363.9z"/>
				<circle class="st51" cx="-15.3" cy="363.4" r="0"/>
				<circle class="st51" cx="-14.7" cy="364.7" r="0"/>
				<circle class="st51" cx="-14.7" cy="363.8" r="0"/>
				<path class="st51" d="M-16,361.2C-16,361.1-16,361.1-16,361.2C-16,361.1-16,361.1-16,361.2L-16,361.2L-16,361.2z"/>
				<circle class="st51" cx="-16.8" cy="361.1" r="0"/>
				<circle class="st51" cx="-16.8" cy="361.9" r="0"/>
				<circle class="st51" cx="-17.5" cy="362.9" r="0"/>
				<circle class="st51" cx="-14.3" cy="362.5" r="0"/>
				<path class="st51" d="M-14.6,362.8L-14.6,362.8C-14.5,362.8-14.5,362.8-14.6,362.8C-14.5,362.8-14.5,362.8-14.6,362.8
					C-14.6,362.9-14.6,362.8-14.6,362.8z"/>
				<circle class="st51" cx="-16.3" cy="362.5" r="0"/>
				<path class="st51" d="M-16.5,363L-16.5,363L-16.5,363C-16.4,363-16.5,363.1-16.5,363C-16.5,363.1-16.5,363.1-16.5,363z"/>
				<circle class="st51" cx="-16.8" cy="364" r="0"/>
				<circle class="st51" cx="-16.4" cy="364.1" r="0"/>
				<circle class="st51" cx="-17" cy="364.4" r="0"/>
				<circle class="st51" cx="-17.5" cy="364.3" r="0"/>
				<circle class="st51" cx="-16.2" cy="365.5" r="0"/>
				<circle class="st51" cx="-15.8" cy="362.3" r="0"/>
				<path class="st51" d="M-15.4,362C-15.4,361.9-15.4,361.9-15.4,362C-15.3,361.9-15.3,361.9-15.4,362C-15.3,362-15.3,362-15.4,362
					L-15.4,362z"/>
				<circle class="st51" cx="-14.9" cy="362.5" r="0"/>
				<circle class="st51" cx="-14.6" cy="361.9" r="0"/>
				<circle class="st51" cx="-14.8" cy="361.6" r="0"/>
				<path class="st51" d="M-13.7,361.7C-13.7,361.6-13.7,361.6-13.7,361.7C-13.7,361.6-13.7,361.6-13.7,361.7L-13.7,361.7
					L-13.7,361.7z"/>
				<circle class="st51" cx="-13.8" cy="362.2" r="0"/>
				<path class="st51" d="M-12.5,363.1L-12.5,363.1L-12.5,363.1C-12.4,363.1-12.5,363.1-12.5,363.1L-12.5,363.1z"/>
				<path class="st51" d="M-12,363.5C-12,363.5-11.9,363.5-12,363.5C-11.9,363.5-11.9,363.5-12,363.5
					C-11.9,363.5-11.9,363.6-12,363.5C-11.9,363.6-12,363.6-12,363.5z"/>
				<circle class="st51" cx="-12" cy="363.8" r="0"/>
				<path class="st51" d="M-12.7,362.5C-12.7,362.5-12.6,362.5-12.7,362.5C-12.6,362.5-12.6,362.5-12.7,362.5
					C-12.6,362.5-12.6,362.5-12.7,362.5C-12.6,362.6-12.7,362.6-12.7,362.5z"/>
				<path class="st51" d="M-12.4,362L-12.4,362C-12.4,362-12.3,362-12.4,362C-12.3,362-12.4,362.1-12.4,362
					C-12.4,362.1-12.4,362.1-12.4,362z"/>
				<path class="st51" d="M-13.9,361.6L-13.9,361.6C-13.9,361.6-13.8,361.6-13.9,361.6C-13.8,361.6-13.9,361.7-13.9,361.6
					C-13.9,361.7-13.9,361.7-13.9,361.6z"/>
				<circle class="st51" cx="-12.8" cy="364.1" r="0.1"/>
				<circle class="st51" cx="-13.3" cy="363.5" r="0.1"/>
				<path class="st51" d="M-13.7,363.2L-13.7,363.2L-13.7,363.2L-13.7,363.2L-13.7,363.2z"/>
				<circle class="st51" cx="-13.4" cy="363.3" r="0"/>
				<circle class="st51" cx="-14.1" cy="363.8" r="0.1"/>
				<path class="st51" d="M-15,361.1c0,0.1,0,0.1-0.1,0.1s-0.1,0-0.1-0.1s0-0.1,0.1-0.1C-15.1,361-15,361-15,361.1z"/>
				<circle class="st51" cx="-17.3" cy="362.3" r="0.1"/>
				<circle class="st51" cx="-16.9" cy="362.7" r="0.1"/>
				<path class="st51" d="M-17.8,363.8c0,0.1,0,0.1-0.1,0.1s-0.1,0-0.1-0.1s0-0.1,0.1-0.1L-17.8,363.8z"/>
			</g>
		</g>
	</g>
	<g>
		
			<linearGradient id="SVGID_37_" gradientUnits="userSpaceOnUse" x1="-53.8968" y1="384.7691" x2="-53.8968" y2="340.4606" gradientTransform="matrix(1 0 0 -1 0 794.6)">
			<stop  offset="0" style="stop-color:#50A0C5"/>
			<stop  offset="0.4743" style="stop-color:#BBE4ED"/>
			<stop  offset="0.9565" style="stop-color:#50A0C5"/>
		</linearGradient>
		<path class="st52" d="M-48.9,448.4v-40.3c-1.4,1.1-4.1,1.1-4.9,1.1l0,0h-0.1c-0.1,0-0.1,0-0.1,0l0,0c-0.8,0-3.5-0.1-4.9-1.1v40.3
			c0,0,0.4,5.9,5.2,5.9C-49,454.3-48.9,448.4-48.9,448.4z"/>
		
			<linearGradient id="SVGID_38_" gradientUnits="userSpaceOnUse" x1="-52.0396" y1="360.9332" x2="-46.8042" y2="345.8656" gradientTransform="matrix(1 0 0 -1 0 794.6)">
			<stop  offset="0" style="stop-color:#7CAEDD"/>
			<stop  offset="0.6403" style="stop-color:#BBE4ED"/>
			<stop  offset="0.9012" style="stop-color:#A0B0DA"/>
		</linearGradient>
		<path class="st53" d="M-53.9,409.8c-1.4,0-2.8-0.2-3.9-0.6v37.2c0,0,0.3,5.6,4,5.6s3.8-5.6,3.8-5.6v-37.2
			C-51.1,409.6-52.5,409.8-53.9,409.8z"/>
		<path class="st0" d="M-53.2,409.2c-0.2,0-0.5,0-0.7,0c-0.3,0-0.6,0-0.9,0c0.4,4.6,0.6,9.8,0.6,15c-0.1,7.9-1.5,16.6-1.4,16.6
			c0.2,0,0.6-0.3,1.8-2.2c1.2-1.9,1.1-18.8,0.9-24.9C-52.9,412.4-53.1,410.9-53.2,409.2z"/>
		<path class="st3" d="M-57.8,424.9c0-1,1.8-1.8,3.9-1.8c2.2,0,3.9,0.8,3.9,1.8s-1.8,1.8-3.9,1.8C-56.1,426.6-57.8,425.8-57.8,424.9
			z"/>
		<g>
			<path class="st4" d="M-51.1,409.4v36.9c0,0-0.1,5-3.3,5.5c0.2,0,0.3,0.1,0.5,0.1c3.7,0,3.8-5.6,3.8-5.6V409
				C-50.4,409.3-50.7,409.4-51.1,409.4z"/>
		</g>
		<g>
			<path class="st4" d="M-53.3,409.4l-2.2,35.3l0,0l-1.8-36.3C-56.5,408.5-54.2,409.3-53.3,409.4z"/>
		</g>
		
			<linearGradient id="SVGID_39_" gradientUnits="userSpaceOnUse" x1="-53.6308" y1="385.9208" x2="-54.397" y2="393.0714" gradientTransform="matrix(1 0 0 -1 0 794.6)">
			<stop  offset="1.185770e-002" style="stop-color:#BBE4ED"/>
			<stop  offset="0.9565" style="stop-color:#50A0C5"/>
		</linearGradient>
		<ellipse class="st54" cx="-53.9" cy="406.2" rx="6.8" ry="3.6"/>
		
			<linearGradient id="SVGID_40_" gradientUnits="userSpaceOnUse" x1="-53.8352" y1="391.2824" x2="-53.9629" y2="386.5584" gradientTransform="matrix(1 0 0 -1 0 794.6)">
			<stop  offset="0" style="stop-color:#59BEE2"/>
			<stop  offset="0.9565" style="stop-color:#50A0C5"/>
		</linearGradient>
		<ellipse class="st55" cx="-53.9" cy="405.6" rx="5" ry="2.3"/>
		<path class="st0" d="M-54.8,407.8c0.5,0.1,1.4,0,1.5,0c-0.6-4.5-1.8-14.7-2-15.4c-0.2-1.2,1.3-2.7,0.9-5.9l-4.4-0.8
			c0,0,0.5,1.7,1.9,7C-56.3,394.8-55.3,403.9-54.8,407.8z"/>
		<g>
			
				<linearGradient id="SVGID_41_" gradientUnits="userSpaceOnUse" x1="-76.2803" y1="435.3742" x2="-67.5974" y2="424.1375" gradientTransform="matrix(1 0 0 -1 0 794.6)">
				<stop  offset="0" style="stop-color:#A5D05E"/>
				<stop  offset="0.9526" style="stop-color:#34783B"/>
			</linearGradient>
			<path class="st56" d="M-66.4,365.8c0,0-5.2-8.5-7.8-7c-2.6,1.5,0.2,9.9,1.5,11.6s4.1,1.3,5,0.6
				C-66.7,370.3-64.6,368.3-66.4,365.8z"/>
			<path class="st50" d="M-56.8,378c0,0-5.5-10.2-1.5-18c4.1-7.8,9.9-13.2,12.5-12.9c3.8,0.5,6.9,11.7,5.3,18.1s-9,14.3-10.2,14.6
				C-51.9,380.3-56.8,378-56.8,378z"/>
			<path class="st50" d="M-48.9,379.5c0,0,6.9-3.3,10.7-0.5s9,12.5,4.2,14.6c-4.9,2.1-17.7-7.9-17.7-7.9L-48.9,379.5z"/>
			<path class="st50" d="M-57.9,377c0,0-2.6-7.2-7.3-7.9c-4.7-0.7-15.2,2.6-13.2,7.5s18.2,6.8,18.2,6.8L-57.9,377z"/>
			<path class="st51" d="M-62.9,376.8c0,0-0.1,0-0.1-0.1s-0.2-0.1-0.4-0.2s-0.4-0.2-0.6-0.3c-0.2-0.1-0.5-0.2-0.9-0.4
				c-0.3-0.1-0.7-0.2-1.1-0.4c-0.4-0.1-0.8-0.2-1.2-0.3c-0.4-0.1-0.8-0.2-1.3-0.3c-0.4-0.1-0.9-0.1-1.4-0.2s-0.9-0.1-1.4-0.1
				s-0.9,0-1.3,0s-0.8,0.1-1.2,0.1c-0.4,0-0.8,0.1-1.1,0.1c-0.4,0.1-0.6,0.1-0.9,0.1c-0.3,0.1-0.5,0.1-0.7,0.1
				c-0.4,0.1-0.6,0.1-0.6,0.1s0.2-0.1,0.6-0.1c0.2-0.1,0.4-0.1,0.7-0.2c0.3-0.1,0.6-0.1,0.9-0.2c0.4-0.1,0.7-0.1,1.1-0.2
				c0.4,0,0.8-0.1,1.2-0.1c0.4,0,0.9,0,1.3-0.1c0.5,0,0.9,0,1.4,0.1s0.9,0.1,1.4,0.1c0.5,0.1,0.9,0.1,1.3,0.2s0.8,0.2,1.2,0.3
				c0.4,0.1,0.8,0.2,1.1,0.3c0.3,0.1,0.6,0.2,0.9,0.4c0.3,0.1,0.5,0.2,0.7,0.3c0.2,0.1,0.3,0.2,0.4,0.2c0.1,0.1,0.1,0.1,0.1,0.1
				L-62.9,376.8z"/>
			<path class="st51" d="M-46.3,381.4c0,0,0.1,0,0.2,0s0.3,0.1,0.5,0.1c0.2,0.1,0.4,0.1,0.7,0.2s0.6,0.2,0.9,0.4
				c0.3,0.1,0.7,0.3,1,0.5c0.4,0.2,0.7,0.4,1.1,0.6s0.8,0.5,1.1,0.7c0.4,0.2,0.7,0.5,1.1,0.8s0.7,0.6,1.1,0.9c0.3,0.3,0.6,0.6,1,0.9
				c0.3,0.3,0.6,0.6,0.8,0.9c0.3,0.3,0.5,0.6,0.7,0.9s0.4,0.5,0.6,0.8c0.2,0.2,0.3,0.4,0.4,0.6c0.2,0.3,0.4,0.5,0.4,0.5
				s-0.1-0.2-0.4-0.5c-0.1-0.2-0.3-0.4-0.4-0.6c-0.2-0.2-0.4-0.5-0.6-0.7c-0.2-0.3-0.5-0.6-0.7-0.8c-0.3-0.3-0.6-0.6-0.9-0.9
				s-0.6-0.6-1-0.9s-0.7-0.6-1.1-0.8c-0.4-0.3-0.7-0.5-1.1-0.8c-0.4-0.2-0.8-0.5-1.1-0.7c-0.4-0.2-0.8-0.4-1.1-0.6
				c-0.4-0.2-0.7-0.3-1-0.4s-0.6-0.2-0.9-0.3c-0.3-0.1-0.5-0.1-0.7-0.2s-0.4-0.1-0.4-0.1c-0.1,0-0.2,0-0.2,0S-46.3,381.4-46.3,381.4
				z"/>
			<path class="st48" d="M-55.1,382.7c0,0-2.5-26.6,16.6-24.1c7.1,0.9,8.6,6.3,4.9,13c-3.9,7-14,12.4-16.4,11.9
				C-54.7,382.5-55.1,382.7-55.1,382.7z"/>
			<path class="st48" d="M-54.3,384.1c0,0,14.6-22.4-3.5-29.1c-6.7-2.5-10.5,1.6-10.3,9.3c0.2,8,6.6,17.5,9,18.1
				C-54.4,383.7-54.3,384.1-54.3,384.1z"/>
			<path class="st51" d="M-56.3,381.9c0,0,0-0.1,0-0.2c0-0.2,0-0.4,0-0.7c0-0.6,0-1.5,0-2.6c0-0.5-0.1-1.1-0.1-1.8
				c-0.1-0.6-0.1-1.3-0.2-1.9c-0.1-0.7-0.2-1.4-0.3-2.1s-0.3-1.4-0.4-2.1c-0.2-0.7-0.4-1.4-0.5-2.1c-0.2-0.7-0.4-1.4-0.6-2
				s-0.4-1.3-0.6-1.9s-0.4-1.1-0.6-1.6s-0.4-1-0.5-1.4c-0.2-0.4-0.3-0.8-0.5-1.1c-0.2-0.6-0.4-0.9-0.4-0.9s0.1,0.3,0.4,0.9
				c0.1,0.3,0.3,0.6,0.5,1.1c0.2,0.4,0.4,0.9,0.6,1.4s0.4,1.1,0.6,1.6c0.2,0.6,0.4,1.2,0.6,1.9c0.2,0.6,0.4,1.3,0.6,2
				s0.4,1.4,0.5,2.1s0.3,1.4,0.5,2.1s0.3,1.4,0.4,2.1s0.2,1.3,0.2,1.9c0.1,0.6,0.1,1.2,0.2,1.8c0.1,1.1,0.1,2,0.1,2.6
				c0,0.3,0,0.6,0,0.8c0,0.2,0,0.3,0,0.3L-56.3,381.9z"/>
			<path class="st51" d="M-53.8,382.2c0,0,0-0.1,0.1-0.2c0.1-0.2,0.1-0.4,0.2-0.7c0.2-0.6,0.6-1.4,1.1-2.4c0.2-0.5,0.5-1,0.8-1.6
				c0.3-0.5,0.6-1.1,1-1.7c0.3-0.6,0.7-1.2,1.1-1.8c0.4-0.6,0.8-1.2,1.2-1.8c0.4-0.6,0.9-1.2,1.3-1.7c0.5-0.6,0.9-1.1,1.3-1.6
				c0.5-0.5,0.9-1,1.3-1.5s0.8-0.9,1.2-1.3s0.7-0.8,1-1.1c0.3-0.3,0.6-0.6,0.8-0.8c0.5-0.4,0.7-0.7,0.7-0.7s-0.3,0.2-0.7,0.7
				c-0.2,0.2-0.5,0.5-0.8,0.8s-0.6,0.7-1,1.1s-0.8,0.8-1.2,1.3s-0.8,1-1.3,1.5c-0.4,0.5-0.8,1.1-1.3,1.6c-0.4,0.6-0.8,1.2-1.3,1.8
				c-0.4,0.6-0.8,1.2-1.2,1.8c-0.4,0.6-0.8,1.2-1.1,1.8c-0.4,0.6-0.6,1.2-0.9,1.7s-0.5,1.1-0.8,1.6c-0.5,1-0.8,1.8-1,2.4
				c-0.1,0.3-0.2,0.5-0.2,0.7c-0.1,0.2-0.1,0.2-0.1,0.2L-53.8,382.2z"/>
			<g>
				<g>
					<g>
						<path class="st57" d="M-53.1,382.6c0,0,2.4-2.8,2.8-5c0.2-0.8-0.1,0-0.1,0s-1.2,3.2-3.1,4.6
							C-53.7,382.4-53.1,382.6-53.1,382.6z"/>
						
							<ellipse transform="matrix(-0.2494 0.9684 -0.9684 -0.2494 302.4652 519.9534)" class="st57" cx="-50.3" cy="377.2" rx="0.8" ry="0.5"/>
					</g>
				</g>
				<g>
					<g>
						<path class="st57" d="M-57.3,380.7c0,0,0.2-3.7-0.8-5.6c-0.4-0.8-0.1,0.1-0.1,0.1s1,3.3,0.4,5.6
							C-57.9,380.9-57.3,380.7-57.3,380.7z"/>
						<path class="st57" d="M-57.8,374.5c0.2,0.4,0.1,0.9-0.2,1s-0.6-0.1-0.8-0.6c-0.2-0.4-0.1-0.9,0.2-1
							C-58.3,373.8-57.9,374-57.8,374.5z"/>
					</g>
				</g>
				<g>
					<g>
						<path class="st57" d="M-56.5,381.6c0,0,1.4-3.9,1-6.5c-0.1-1-0.1,0.1-0.1,0.1s-0.1,4-1.4,6.2
							C-57.2,381.5-56.5,381.6-56.5,381.6z"/>
						<path class="st57" d="M-55,374.3c0,0.5-0.2,0.9-0.5,0.9s-0.6-0.4-0.6-0.8s0.2-0.9,0.5-0.9C-55.3,373.5-55.1,373.8-55,374.3z"
							/>
					</g>
				</g>
				<g>
					<g>
						<path class="st57" d="M-56,385.2c0,0,2.5-3.3,3-5.8c0.2-1-0.1,0-0.1,0s-1.4,3.8-3.3,5.4C-56.5,385-56,385.2-56,385.2z"/>
						
							<ellipse transform="matrix(-0.2477 0.9688 -0.9688 -0.2477 300.8888 523.7004)" class="st57" cx="-52.9" cy="378.7" rx="0.8" ry="0.5"/>
					</g>
				</g>
				<g>
					<g>
						<path class="st57" d="M-55.9,383.5c0,0,0.5-4.1,2-6.2c0.6-0.8,0.1,0.1,0.1,0.1s-1.7,3.6-1.5,6.2
							C-55.3,383.7-55.9,383.5-55.9,383.5z"/>
						<path class="st57" d="M-54,376.3c-0.2,0.4-0.2,0.9,0.1,1c0.3,0.2,0.6-0.1,0.9-0.5c0.2-0.4,0.2-0.9,0-1
							C-53.4,375.7-53.8,375.9-54,376.3z"/>
					</g>
				</g>
			</g>
			<path class="st49" d="M-64.2,377.4c1.5-0.4,5.5,2.9,8.7,3.8s7.2-0.4,9.7,0.1s-1.1,9.1-10.6,6.6C-66,385.3-66.6,378-64.2,377.4z"
				/>
		</g>
	</g>
</g>
<g>
	<g>
		<path class="st58" d="M50.5,407.1c-6.5,11.9-21.4,12.8-33,8.9c-2.9-1-5.7-2.3-8.3-3.9c-0.7-0.4-1.4-0.8-2.1-1.1
			c-0.8,1.2-1.6,2.3-2.7,3.3c-3.7,3.3-11.4,5-14.8,0.1c-1.4-2.1-1.2-5.3,0.3-7.3c1.6-2.3,4.3-3.3,7.1-3.6c3.1-0.3,5.9,0.8,8.6,2.1
			c0.8-1.5,1.4-3,2.1-4.5c3.7-8.8,6.6-17.8,11.2-26.3c3.9-7.1,9.6-14.6,18.3-15.4c2.6-0.3,2.5,3.8,0,4c-1.2,0.2-3,0.7-4.1,1.3
			c-6.7,3.5-10.6,11.6-13.7,18.4c-3.5,7.8-6.1,16.1-9.9,23.9c-0.1,0.3-0.2,0.4-0.3,0.7c0.2,0.2,0.4,0.3,0.7,0.4
			c5.1,2.9,10.4,5.3,16.4,5.9c5.3,0.6,11.1,0.3,15.7-2.8c6.8-4.6,9.5-14.6,5.7-21.9c-1.4-2.7-3.5-4.6-6.1-5.8
			c-2.3,0.9-5,1.3-7.4,1.1c-1.6-0.1-3.2-0.8-3.7-2.4c-0.4-1.2-0.2-2.6,0.7-3.5c1.2-1.2,3-1.1,4.6-0.9c1.5,0.2,2.9,0.4,4.4,0.9
			c0.5,0.2,0.9,0.4,1.5,0.5c0.4-0.3,0.9-0.5,1.3-0.9c3.7-2.8,5.5-7.7,5.3-12.2c-0.3-4.3-2.8-7.9-6.4-10.2c-7.8-4.7-19.5-4-26.6,1.9
			c-8.2,6.7-12.6,20.1-7.3,29.9c1.3,2.2-2.2,4.3-3.5,2c-1.3-2.4-2.1-5-2.5-7.7c-1.6-12,4.8-25.6,16-30.6c9.3-4.1,22.4-3.6,29.8,4.1
			c6.7,7.2,5.5,19.7-2.1,25.7c0.5,0.4,1,0.8,1.5,1.1C54.3,388.1,54.8,399.2,50.5,407.1z M3.6,409c-0.3-0.2-0.6-0.4-0.9-0.5
			c-1.9-0.9-3.8-1.3-5.9-1s-4.5,1.6-4.1,4.1c0.4,1.8,3.6,2,5.3,1.6C0.1,412.8,2.4,411,3.6,409z"/>
		<path class="st58" d="M96.5,400.9c-2.2,4.1-4.5,9.1-8,12.3c-2.9,2.6-6.7,4.3-10.5,2.5c-2.2-1.1-3.2-3-3.5-5.1
			c-1,1.3-2.2,2.4-3.5,3.5c-3.7,2.8-9.3,3.5-12.7-0.4c-3.2-3.5-2.7-8.7-1.3-12.7c1.2-3.8,3.1-7.5,4.7-11.1c1.8-4.1,3.7-8.3,5.6-12.4
			c0.4-0.9,1.9-1.2,2.7-0.7c1,0.6,1.2,1.7,0.8,2.8c-1.9,4.1-3.8,8.2-5.6,12.3c-1.4,3.1-2.9,6.3-4,9.2c-1,2.8-2.2,7-0.4,9.6
			c2.5,3.3,6.8,1.3,9.1-1c2.9-2.9,5.1-6.7,6.8-10.5c1-2.7,2.2-5.2,3.3-7.8c2-4.6,4.1-9.3,6.1-14c0.4-0.9,1.9-1.2,2.8-0.7
			c1,0.6,1.2,1.7,0.7,2.8c-2,4.5-4.1,9-5.9,13.5c-0.5,1.2-2.5,5.9-2.9,6.9c-0.7,1.7-1.3,3.3-1.8,5.1c-0.6,2.3-1.6,6.3,1.4,7.3
			c2.8,0.9,5.5-2,7.2-3.8c2.3-2.7,4.1-5.8,5.9-9C94.6,397.3,97.8,398.7,96.5,400.9z"/>
		<path class="st58" d="M128.2,400.3c-1.9,3.3-4.1,6.5-6.8,9.2c-2.2,2.2-5.1,4.1-8.3,4c-5.3-0.2-5.5-7.8-6.1-11.6c0-0.1,0-0.1,0-0.2
			c2.8-0.5,5.4-2.1,7.3-3.5c4-2.9,7.8-7.2,8.6-12.3c0.3-1.9,0-3.9-0.8-5.5c-0.6-0.9-1.6-0.8-2.4-0.4c-0.8,0.5-1.5,1.6-1,2.5
			c0.2,0.4,0.3,0.8,0.3,1.4c0.3,3.6-2.6,7.2-5.1,9.6c-1.7,1.5-5.9,4.5-9,4.5c-1.8,0-3.7-0.6-5.6-2.5c0.1-0.1,9.5-21.7,11.1-25.2
			c2-4.6,4.1-9.2,6.2-13.8c1-2.3-2.4-4.4-3.5-2.1c-8.1,17.6-15.8,35.3-23.4,53.1c-0.9,2.2-1.8,4.4-2.8,6.5c-0.4,1-0.4,2.2,0.7,2.8
			c0.9,0.5,2.3,0.3,2.8-0.7c2.5-5.7,4.9-11.4,7.4-17.1c0.7,0.7,4.3,2.5,4.9,2.7c0.1,0.4,0.2,0.9,0.3,1.3c0.2,1.3,0.4,2.7,0.6,4
			c0.5,2.7,1.2,5.4,2.9,7.6c4.5,5.8,12.5,2.5,17-1.5c3.3-2.9,5.9-6.7,8.1-10.6C132.9,400,129.5,398,128.2,400.3z"/>
		<path class="st58" d="M160.7,401.2c-4.2,8-12.3,16.7-22.3,15.3c-3.6-0.5-6.9-2.7-8.5-6c-1.7-3.6-1.6-7.8-0.9-11.7
			c0.8-4,2.4-7.8,4.5-11.4c2-3.5,4.5-6.9,7.8-9.2c3-2.1,7.1-2.8,10.4-1.1c4,2.1,4.2,6.9,2.8,10.6c-3.3,8.1-12.8,12.5-21,9.8
			c-0.5,1.9-0.8,3.7-0.9,5.6c-0.1,2.6,0.4,5.6,2.3,7.5c1.8,1.9,4.7,2.4,7.2,2.1c7-1.1,12.1-7.6,15.2-13.4
			C158.5,396.9,162,399,160.7,401.2z M134.7,393.6c3.7,1.1,7.6,0.6,10.9-1.5c2.8-1.7,5.3-4.7,5.7-8.2c0.3-2.8-1.9-4.2-4.6-3.8
			c-2.8,0.4-5.2,2.8-7,4.9C137.8,387.5,136,390.4,134.7,393.6z"/>
		<path class="st58" d="M161.1,402.1c-0.8,2.2-1.4,4.6-1.2,7.1c0.1,1.5,0.8,3,2.3,3.6s3.1-0.2,4.3-1c4.1-2.9,6.9-7.9,9.3-12.2
			c1.3-2.2,4.7-0.3,3.5,2c-1.7,3.1-3.6,6-5.8,8.8c-1.8,2.3-4,4.6-6.6,5.8c-4.5,2.1-9.8-0.3-10.8-5.3c-1.1-5.6,1.6-11.7,3.8-16.7
			c2.3-5.6,4.6-11.1,7.2-16.7c-1.3,0-2.8,0-4.1,0c-2.6,0-2.6-4,0-4c1.9,0,4,0,5.8,0c1.9-4.1,3.8-8.3,5.7-12.5
			c0.4-0.9,1.9-1.2,2.7-0.7c1,0.5,1.2,1.7,0.8,2.7c-1.6,3.5-3.2,7-4.7,10.5c1.7,0,4,0,5.7,0c2.5,0,2.5,4,0,4c-2.3,0-5.2,0-7.5,0
			c-0.4,0.8-0.7,1.5-1,2.3c-2.2,5-4.3,9.9-6.4,14.9C162.9,397.1,161.9,399.6,161.1,402.1z"/>
		<path class="st59" d="M235.4,350.8c-2.8-1.5-6.2-1.4-9-0.2c-5,2-8.5,6.6-11.1,11.1c-2.3,3.9-13.7,31.3-17.1,38
			c-1.8,3.7-3.8,7.3-6.4,10.5c-1.2-0.8-2.4-1.5-3.8-2.2c-4.6-2.5-10.6-4.1-15.6-1.4c-4,2.2-6.3,7.7-3.2,11.6
			c2.8,3.6,8.5,4.1,12.7,3.3c4.1-0.7,7.6-3,10.5-5.9c1.3,1,2.6,2.1,3.9,3.1c4.6,3.8,9.2,7.3,14.9,9.4c5.3,2,11,2.6,16.6,1.5
			c2.7-0.5,5.2-1.5,7.5-3c2.2-1.3,0.2-4.8-2-3.5c-9.7,6-22.1,2.2-30.5-4.2c-2.6-2.1-5.2-4.2-7.8-6.2c0,0,0,0,0-0.1
			c4.1-5.2,7-11.2,9.6-17.2c2.2-5.1,13.4-31.4,16.7-35.7c4.7-5.8,8.1-6.7,11.3-5.6c3.8,1.3,3.3,5.1,2,8.3c-0.8,2.1,0.2,3,0.9,3.3
			c1,0.4,2.1-0.2,2.6-1.3C240.4,359.6,240.7,353.5,235.4,350.8z M176.1,417.5c-1.5-0.2-3.7-1-4.1-2.7c-0.5-1.6,0.8-3.5,2.2-4.5
			c1.9-1.2,4.2-1.3,6.4-0.9c3.1,0.5,6,2,8.7,3.7C185.2,417.1,179.6,418.1,176.1,417.5z"/>
		<path class="st59" d="M255.8,401.6c-2.3,4.2-5,8.5-8.6,11.7c-2.8,2.4-6.7,4.4-10.2,2.2c-1.8-1.1-2.6-2.8-2.8-4.6
			c-2.2,2.4-4.7,4.2-7.8,5c-5.2,1.3-9.8-1.6-10.9-6.8c-1.4-6.9,1.5-14.4,4.8-20.3c3.1-5.7,8.5-11.9,15.4-12.5c2.8-0.2,5.9,0.9,7.8,3
			c0.4,0.5,0.8,0.9,1,1.5c0.5-1.1,1-2.2,1.5-3.3c1.1-2.3,4.6-0.4,3.5,2c-2.2,4.8-4.3,9.6-6.4,14.6c-1.6,3.8-3.3,7.6-4.4,11.5
			c-0.5,1.8-1.6,5.9,0.6,6.6c2.5,0.9,5.3-2,6.7-3.5c2.4-2.8,4.4-5.9,6.2-9.2C253.6,397.2,257.1,399.3,255.8,401.6z M236.6,399.4
			c0.1-0.1,2.2-4.9,3.1-7.2c0.5-1.4,1.1-2.7,1.7-4.1c-0.1-0.3-0.1-0.5,0-0.9c0.7-2.4,0.4-4.9-2.1-6.3c-2-1.1-4.4-0.8-6.4,0.2
			c-5.3,2.7-8.6,8-10.9,13.3c-2,4.2-4.1,10.3-2.2,15c1.2,3,4.6,3.3,7.3,1.9C231.7,409.1,234.7,404,236.6,399.4z"/>
		<path class="st59" d="M274.5,404.7c-2.5,4.9-6.5,10.2-11.9,12.1c-4.6,1.7-9.6-0.6-11-5.4c-1.6-5.2,0.1-11.3,1.9-16.3
			c5.6-13.5,11.4-27.1,17.5-40.4c0.4-0.9,1.9-1.2,2.8-0.7c1,0.6,1.2,1.7,0.7,2.8c-5.9,13-11.6,26.2-17.1,39.5
			c-1.5,4.2-3.5,9.9-1.8,14.4c1.2,3.2,4.6,3.3,7.2,1.8c4.1-2.3,7-6.7,9-10.9c1.9-4.1,3.6-9.5,2.3-14.1c-0.4-1.3-1.1-2.7-2.1-3.3
			c-1-0.7-2.2-0.8-3.5-0.4c-2.5,0.6-3.5-3.2-1-3.9c5.1-1.2,9.3,2,10.5,6.9C279.4,392.7,277.3,399.2,274.5,404.7z"/>
	</g>
	<g>
		<path class="st58" d="M1.4,444.6c0,0.9-0.1,1.7-0.3,2.5c-0.1,0.7-0.6,1.3-0.9,1.7c-0.4,0.4-0.9,0.7-1.3,1s-1,0.3-1.6,0.3
			c-0.4,0-0.7-0.1-1-0.1c-0.3-0.1-0.6-0.3-0.9-0.4v4.2h-1.6v-4.2c-0.4,0.1-0.7,0.3-0.9,0.4c-0.3,0.1-0.6,0.1-1.2,0.1
			c-1.2,0-2.2-0.4-2.9-1.3c-0.7-0.9-1.2-2.2-1.2-3.8c0-0.9,0.1-1.6,0.3-2.3c0.3-0.7,0.6-1.3,0.9-1.7c0.4-0.4,0.9-0.7,1.3-1
			c0.4-0.3,1-0.3,1.6-0.3c0.3,0,0.7,0,1,0.1s0.6,0.3,0.9,0.4v-4.5h1.7v4.5c0.3-0.1,0.6-0.3,1-0.4c0.4-0.1,0.7-0.1,1.2-0.1
			c1.2,0,2.2,0.4,2.9,1.3C1.1,441.8,1.4,443,1.4,444.6z M-6.3,448.2v-6.8c-0.3-0.1-0.4-0.1-0.7-0.3c-0.3-0.1-0.6-0.1-0.9-0.1
			c-0.9,0-1.5,0.3-2,0.9s-0.7,1.6-0.7,2.9c0,1.2,0.3,2.2,0.7,2.8c0.4,0.7,1,1,1.9,1c0.3,0,0.6,0,0.9-0.1
			C-6.9,448.4-6.6,448.4-6.3,448.2z M-0.4,444.7c0-1.2-0.1-2-0.6-2.8s-1-1-1.9-1c-0.3,0-0.6,0-0.9,0.1c-0.3,0.1-0.6,0.1-0.9,0.3v6.8
			c0.3,0.1,0.6,0.3,0.7,0.3c0.1,0,0.4,0.1,0.9,0.1c0.9,0,1.6-0.3,2-1C-0.6,446.9-0.4,446-0.4,444.7z"/>
		<path class="st58" d="M12.9,444.9c0,1.7-0.4,3.1-1.3,3.9c-0.9,1-2,1.5-3.5,1.5s-2.6-0.4-3.5-1.5c-0.9-1-1.3-2.3-1.3-3.9
			c0-1.7,0.4-3.1,1.3-3.9c0.9-1,2-1.5,3.5-1.5s2.6,0.4,3.5,1.5C12.5,441.8,12.9,443.1,12.9,444.9z M11.2,444.9
			c0-1.3-0.3-2.3-0.7-3.1c-0.6-0.6-1.3-1-2.2-1s-1.6,0.3-2.2,1s-0.7,1.6-0.7,3.1c0,1.3,0.3,2.3,0.7,2.9c0.6,0.7,1.3,1,2.2,1
			s1.6-0.3,2.2-1C10.9,447.2,11.2,446.2,11.2,444.9z"/>
		<path class="st58" d="M24.7,444.7c0,0.9-0.1,1.6-0.3,2.3c-0.3,0.7-0.6,1.3-1,1.7c-0.4,0.4-0.9,0.9-1.5,1c-0.6,0.3-1.2,0.4-1.7,0.4
			s-1-0.1-1.5-0.1c-0.4-0.1-0.9-0.3-1.3-0.6v4.4h-1.7v-14.1h1.7v1c0.4-0.4,1-0.7,1.6-1s1.2-0.4,1.9-0.4c1.3,0,2.2,0.4,2.9,1.5
			C24.4,441.8,24.7,443,24.7,444.7z M23,444.7c0-1.3-0.1-2.2-0.6-2.8c-0.4-0.6-1-0.9-2-0.9c-0.6,0-1,0.1-1.5,0.3
			c-0.6,0.1-1,0.6-1.5,0.9v5.8c0.6,0.3,0.9,0.3,1.3,0.4c0.3,0.1,0.7,0.1,1.2,0.1c1,0,1.7-0.3,2.2-1C22.7,447.1,23,446,23,444.7z"/>
		<path class="st58" d="M37.1,450h-1.7v-8.2l-2.6,5.2h-1.3l-2.6-5.2v8.2h-1.6v-10.3h2l2.8,5.8l2.8-5.8h2.2L37.1,450L37.1,450z"/>
		<path class="st58" d="M49.5,439.8l-6,14.1h-1.9l1.9-4.2l-4.1-9.8h1.9l3.2,7.6l3.2-7.6L49.5,439.8L49.5,439.8z"/>
		<path class="st58" d="M60.1,450h-1.7v-8.9h-3.8c0,0.6,0,1,0,1.5c0,0.4,0,0.9,0,1.3c0,1-0.1,1.9-0.1,2.5c-0.1,0.6-0.3,1.2-0.4,1.6
			c-0.1,0.4-0.3,0.7-0.6,0.9c-0.1,0.3-0.4,0.4-0.6,0.6c-0.1,0.1-0.4,0.3-0.7,0.4c-0.3,0.1-0.6,0.1-0.9,0.1c-0.1,0-0.3,0-0.4,0
			s-0.3,0-0.4,0v-1.5h0.1h0.1c0.1,0,0.1,0,0.3,0c0.1,0,0.3,0,0.4-0.1c0.1-0.1,0.3-0.1,0.4-0.3c0.3-0.3,0.6-0.9,0.7-1.6
			c0.1-0.7,0.3-1.7,0.4-3.2c0-0.6,0-1.2,0.1-1.7c0-0.7,0-1.3,0.1-2h7.1V450L60.1,450L60.1,450z"/>
		<path class="st58" d="M71.5,450h-1.7v-1.2c-0.1,0.1-0.3,0.3-0.6,0.4c-0.3,0.1-0.6,0.3-0.7,0.4c-0.3,0.1-0.6,0.3-1,0.3
			c-0.4,0.1-0.9,0.1-1.3,0.1c-0.9,0-1.7-0.3-2.3-0.9c-0.6-0.6-1-1.5-1-2.3c0-0.7,0.1-1.5,0.6-1.9c0.4-0.4,0.9-0.9,1.5-1.2
			c0.6-0.3,1.3-0.4,2.2-0.6c0.9-0.1,1.7-0.1,2.8-0.3v-0.3c0-0.4-0.1-0.7-0.1-1c-0.1-0.3-0.3-0.4-0.6-0.6c-0.3-0.1-0.6-0.3-0.9-0.3
			c-0.3,0-0.7-0.1-1-0.1c-0.4,0-0.9,0.1-1.6,0.1c-0.6,0.1-1.2,0.3-1.7,0.6h-0.1v-1.7c0.3-0.1,0.9-0.1,1.5-0.3
			c0.6-0.1,1.3-0.1,1.9-0.1c0.7,0,1.3,0.1,1.9,0.1c0.6,0.1,1,0.3,1.5,0.6c0.4,0.3,0.7,0.6,0.9,1.2c0.1,0.4,0.3,1,0.3,1.6L71.5,450
			L71.5,450z M69.7,447.5v-2.9c-0.6,0-1.2,0.1-1.9,0.1c-0.7,0.1-1.3,0.1-1.7,0.3c-0.6,0.1-0.9,0.3-1.2,0.7c-0.3,0.3-0.4,0.7-0.4,1.2
			c0,0.6,0.1,1,0.6,1.3c0.3,0.3,0.9,0.4,1.6,0.4c0.6,0,1.2-0.1,1.6-0.3C68.8,448.1,69.3,447.8,69.7,447.5z"/>
		<path class="st58" d="M90.1,450h-1.7v-7.7L83,450h-1.6v-10.3h1.7v7.6l5.4-7.6h1.6V450L90.1,450z"/>
		<path class="st58" d="M102.9,452.4h-1.6V450h-7.7v2.5H92v-3.9h1.2c0.7-1.2,1.3-2.6,1.6-4.1c0.3-1.6,0.6-3.1,0.6-4.7h6.6v8.7h1.3
			v3.9H102.9z M99.9,448.5v-7.3h-3.1c-0.1,1.6-0.3,2.9-0.7,4.2s-0.9,2.3-1.3,3.2h5.1V448.5z"/>
		<path class="st58" d="M113.8,445h-7.6c0,0.6,0.1,1.2,0.3,1.6c0.1,0.4,0.4,0.9,0.7,1.2c0.3,0.3,0.7,0.6,1.2,0.7s0.9,0.3,1.5,0.3
			c0.7,0,1.5-0.1,2.2-0.4c0.7-0.3,1.2-0.6,1.6-0.9h0.1v1.9c-0.6,0.3-1.2,0.4-1.7,0.6c-0.6,0.1-1.3,0.3-1.9,0.3
			c-1.7,0-3.1-0.4-4.1-1.3c-0.9-0.9-1.5-2.2-1.5-3.9s0.4-3.1,1.3-4.1c0.9-1,2.2-1.5,3.6-1.5c1.3,0,2.5,0.4,3.2,1.2
			c0.7,0.9,1.2,2,1.2,3.5L113.8,445L113.8,445z M112.2,443.7c0-0.9-0.3-1.6-0.7-2.2c-0.4-0.6-1.2-0.7-2-0.7c-0.9,0-1.6,0.3-2.2,0.9
			c-0.6,0.6-0.9,1.2-0.9,2H112.2L112.2,443.7z"/>
		<path class="st58" d="M124.5,450h-1.7v-1.2c-0.1,0.1-0.3,0.3-0.6,0.4c-0.3,0.1-0.6,0.3-0.7,0.4c-0.3,0.1-0.6,0.3-1,0.3
			c-0.4,0.1-0.9,0.1-1.3,0.1c-0.9,0-1.7-0.3-2.3-0.9c-0.6-0.6-1-1.5-1-2.3c0-0.7,0.1-1.5,0.6-1.9c0.4-0.4,0.9-0.9,1.5-1.2
			c0.6-0.3,1.3-0.4,2.2-0.6c0.9-0.1,1.7-0.1,2.8-0.3v-0.3c0-0.4-0.1-0.7-0.1-1c-0.1-0.3-0.3-0.4-0.6-0.6c-0.3-0.1-0.6-0.3-0.9-0.3
			c-0.3,0-0.7-0.1-1-0.1c-0.4,0-0.9,0.1-1.6,0.1c-0.6,0.1-1.2,0.3-1.7,0.6h-0.1v-1.7c0.3-0.1,0.9-0.1,1.5-0.3s1.3-0.1,1.9-0.1
			c0.7,0,1.3,0.1,1.9,0.1c0.6,0.1,1,0.3,1.5,0.6c0.4,0.3,0.7,0.6,0.9,1.2c0.1,0.4,0.3,1,0.3,1.6L124.5,450L124.5,450z M122.7,447.5
			v-2.9c-0.6,0-1.2,0.1-1.9,0.1c-0.7,0.1-1.3,0.1-1.7,0.3c-0.6,0.1-0.9,0.3-1.2,0.7c-0.3,0.4-0.4,0.7-0.4,1.2c0,0.6,0.1,1,0.6,1.3
			c0.3,0.3,0.9,0.4,1.6,0.4c0.6,0,1.2-0.1,1.6-0.3C121.9,448.1,122.3,447.8,122.7,447.5z"/>
		<path class="st58" d="M136.1,450h-1.7v-8.9h-3.8c0,0.6,0,1,0,1.5c0,0.4,0,0.9,0,1.3c0,1-0.1,1.9-0.1,2.5c-0.1,0.6-0.3,1.2-0.4,1.6
			s-0.3,0.7-0.6,0.9c-0.1,0.3-0.4,0.4-0.6,0.6s-0.4,0.3-0.7,0.4c-0.3,0.1-0.6,0.1-0.9,0.1c-0.1,0-0.3,0-0.4,0c-0.1,0-0.3,0-0.4,0
			v-1.5h0.1h0.1c0,0,0.1,0,0.3,0s0.3,0,0.4-0.1c0.1-0.1,0.3-0.1,0.4-0.3c0.3-0.3,0.6-0.9,0.7-1.6s0.3-1.7,0.4-3.2
			c0-0.6,0-1.2,0.1-1.7c0-0.7,0-1.3,0.1-2h7.1L136.1,450L136.1,450z"/>
		<path class="st58" d="M147.8,446.8c0,0.6-0.1,0.9-0.3,1.3c-0.1,0.4-0.4,0.7-0.9,1c-0.4,0.3-0.9,0.6-1.3,0.7
			c-0.4,0.1-1,0.1-1.7,0.1h-4.1v-10.3h1.7v4.1h2.3c0.7,0,1.3,0,1.7,0.1s0.9,0.3,1.3,0.6c0.3,0.3,0.6,0.6,0.7,1
			C147.8,445.9,147.8,446.3,147.8,446.8z M146,446.8c0-0.3,0-0.6-0.1-0.9c-0.1-0.3-0.3-0.4-0.6-0.6c-0.3-0.1-0.6-0.3-0.9-0.3
			c-0.3,0-0.7,0-1.5,0h-1.7v3.5h1.7c0.6,0,1.2,0,1.5-0.1c0.3,0,0.6-0.1,0.9-0.3c0.3-0.1,0.4-0.3,0.6-0.6
			C145.9,447.5,146,447.2,146,446.8z"/>
		<path class="st58" d="M159,450h-1.7v-4.7h-5.1v4.7h-1.7v-10.3h1.7v4.2h5.1v-4.2h1.7V450z"/>
		<path class="st58" d="M171.1,444.9c0,1.7-0.4,3.1-1.3,3.9c-0.9,1-2,1.5-3.5,1.5c-1.5,0-2.6-0.4-3.5-1.5c-0.9-1-1.3-2.3-1.3-3.9
			c0-1.7,0.4-3.1,1.3-3.9s2-1.5,3.5-1.5c1.5,0,2.6,0.4,3.5,1.5C170.8,441.8,171.1,443.1,171.1,444.9z M169.3,444.9
			c0-1.3-0.3-2.3-0.7-3.1c-0.6-0.6-1.3-1-2.2-1s-1.6,0.3-2.2,1c-0.6,0.7-0.7,1.6-0.7,3.1c0,1.3,0.3,2.3,0.7,2.9c0.4,0.6,1.3,1,2.2,1
			s1.6-0.3,2.2-1C169.2,447.1,169.3,446.2,169.3,444.9z"/>
		<path class="st58" d="M181,441.2h-5.4v8.7h-1.7v-10.3h7.1V441.2L181,441.2z"/>
		<path class="st58" d="M191.5,444.9c0,1.7-0.4,3.1-1.3,3.9c-0.9,1-2,1.5-3.5,1.5c-1.5,0-2.6-0.4-3.5-1.5c-0.9-1-1.3-2.3-1.3-3.9
			c0-1.7,0.4-3.1,1.3-3.9c0.9-0.9,2-1.5,3.5-1.5c1.5,0,2.6,0.4,3.5,1.5C191.1,441.8,191.5,443.1,191.5,444.9z M189.7,444.9
			c0-1.3-0.3-2.3-0.7-3.1c-0.6-0.6-1.3-1-2.2-1c-0.9,0-1.6,0.3-2.2,1c-0.6,0.7-0.7,1.6-0.7,3.1c0,1.3,0.3,2.3,0.7,2.9
			c0.4,0.6,1.3,1,2.2,1c0.9,0,1.6-0.3,2.2-1C189.4,447.2,189.7,446.2,189.7,444.9z"/>
		<path class="st58" d="M209.5,450h-1.7v-8.7h-5.1v8.7H201v-10.3h8.6V450L209.5,450z"/>
		<path class="st58" d="M221.6,444.9c0,1.7-0.4,3.1-1.3,3.9c-0.9,1-2,1.5-3.5,1.5s-2.6-0.4-3.5-1.5c-0.9-1-1.3-2.3-1.3-3.9
			c0-1.7,0.4-3.1,1.3-3.9c0.9-0.9,2-1.5,3.5-1.5s2.6,0.4,3.5,1.5C221.2,441.8,221.6,443.1,221.6,444.9z M219.9,444.9
			c0-1.3-0.3-2.3-0.7-3.1c-0.6-0.6-1.3-1-2.2-1s-1.6,0.3-2.2,1c-0.6,0.7-0.7,1.6-0.7,3.1c0,1.3,0.3,2.3,0.7,2.9c0.4,0.6,1.3,1,2.2,1
			s1.6-0.3,2.2-1C219.7,447.1,219.9,446.2,219.9,444.9z"/>
		<path class="st58" d="M233.7,452.4h-1.6V450h-7.7v2.5h-1.6v-3.9h1.2c0.7-1.2,1.3-2.6,1.6-4.1c0.3-1.6,0.6-3.1,0.6-4.7h6.6v8.7h1.3
			v3.9H233.7z M230.7,448.5v-7.3h-3.1c-0.1,1.6-0.3,2.9-0.7,4.2s-0.9,2.3-1.3,3.2h5.1V448.5z"/>
		<path class="st58" d="M244.1,450h-1.7v-1.2c-0.1,0.1-0.3,0.3-0.6,0.4c-0.3,0.1-0.6,0.3-0.7,0.4c-0.3,0.1-0.6,0.3-1,0.3
			c-0.4,0.1-0.9,0.1-1.3,0.1c-0.9,0-1.7-0.3-2.3-0.9c-0.6-0.6-1-1.5-1-2.3c0-0.7,0.1-1.5,0.6-1.9c0.4-0.4,0.9-0.9,1.5-1.2
			c0.6-0.3,1.3-0.4,2.2-0.6c0.9-0.1,1.7-0.1,2.8-0.3v-0.3c0-0.4-0.1-0.7-0.1-1c-0.1-0.3-0.3-0.4-0.6-0.6c-0.3-0.1-0.6-0.3-0.9-0.3
			c-0.3,0-0.7-0.1-1-0.1c-0.4,0-0.9,0.1-1.6,0.1c-0.6,0.1-1.2,0.3-1.7,0.6h-0.1v-1.7c0.3-0.1,0.9-0.1,1.5-0.3
			c0.6-0.1,1.3-0.1,1.9-0.1c0.7,0,1.3,0.1,1.9,0.1c0.6,0.1,1,0.3,1.5,0.6c0.4,0.3,0.7,0.6,0.9,1.2c0.1,0.4,0.3,1,0.3,1.6V450
			L244.1,450z M242.3,447.5v-2.9c-0.6,0-1.2,0.1-1.9,0.1c-0.7,0.1-1.3,0.1-1.7,0.3c-0.6,0.1-0.9,0.3-1.2,0.7
			c-0.3,0.3-0.4,0.7-0.4,1.2c0,0.6,0.1,1,0.6,1.3c0.3,0.3,0.9,0.4,1.6,0.4c0.6,0,1.2-0.1,1.6-0.3
			C241.5,448.1,241.9,447.8,242.3,447.5z"/>
		<path class="st58" d="M256.5,444.7c0,0.9-0.1,1.6-0.3,2.3c-0.3,0.7-0.6,1.3-1,1.7c-0.4,0.4-0.9,0.9-1.5,1
			c-0.6,0.3-1.2,0.4-1.7,0.4c-0.6,0-1-0.1-1.5-0.1c-0.4-0.1-0.9-0.3-1.3-0.6v4.4h-1.7v-14.1h1.7v1c0.4-0.4,1-0.7,1.6-1
			c0.6-0.3,1.2-0.4,1.9-0.4c1.3,0,2.2,0.4,2.9,1.5C256.2,441.8,256.5,443,256.5,444.7z M254.7,444.7c0-1.3-0.1-2.2-0.6-2.8
			s-1-0.9-2-0.9c-0.6,0-1,0.1-1.5,0.3c-0.4,0.1-1,0.6-1.5,0.9v5.8c0.4,0.3,0.9,0.3,1.3,0.4c0.3,0.1,0.7,0.1,1.2,0.1
			c1,0,1.7-0.3,2.2-1C254.4,447.1,254.7,446,254.7,444.7z"/>
		<path class="st58" d="M268.5,450h-2.3l-4.2-4.7h-0.9v4.7h-1.7v-10.3h1.7v4.5c0.6,0,1-0.1,1.3-0.3c0.3-0.1,0.6-0.6,0.9-1
			c0.1-0.1,0.1-0.3,0.3-0.6c0.1-0.1,0.1-0.3,0.3-0.6c0.3-0.7,0.7-1.2,1.2-1.6c0.4-0.3,1.2-0.6,2-0.6h0.7v1.5h-0.7
			c-0.4,0-0.9,0.1-1.2,0.3c-0.3,0.1-0.6,0.6-0.7,1.2c-0.3,0.6-0.6,1-0.7,1.3c-0.3,0.3-0.6,0.6-0.9,0.7L268.5,450z"/>
		<path class="st58" d="M278.4,450h-1.7v-1.2c-0.1,0.1-0.3,0.3-0.6,0.4c-0.3,0.1-0.6,0.3-0.7,0.4c-0.3,0.1-0.6,0.3-1,0.3
			c-0.4,0.1-0.9,0.1-1.3,0.1c-0.9,0-1.7-0.3-2.3-0.9c-0.6-0.6-1-1.5-1-2.3c0-0.7,0.1-1.5,0.6-1.9c0.4-0.4,0.9-0.9,1.5-1.2
			c0.6-0.3,1.3-0.4,2.2-0.6c0.9-0.1,1.7-0.1,2.8-0.3v-0.3c0-0.4-0.1-0.7-0.1-1c-0.1-0.3-0.3-0.4-0.6-0.6c-0.3-0.1-0.6-0.3-0.9-0.3
			s-0.7-0.1-1-0.1c-0.4,0-0.9,0.1-1.6,0.1c-0.6,0.1-1.2,0.3-1.7,0.6h-0.1v-1.7c0.3-0.1,0.9-0.1,1.5-0.3s1.3-0.1,1.9-0.1
			c0.7,0,1.3,0.1,1.9,0.1c0.6,0.1,1,0.3,1.5,0.6c0.4,0.3,0.7,0.6,0.9,1.2c0.1,0.4,0.3,1,0.3,1.6V450L278.4,450z M276.7,447.5v-2.9
			c-0.6,0-1.2,0.1-1.9,0.1c-0.7,0.1-1.3,0.1-1.7,0.3c-0.6,0.1-0.9,0.3-1.2,0.7c-0.3,0.3-0.4,0.7-0.4,1.2c0,0.6,0.1,1,0.6,1.3
			c0.3,0.3,0.9,0.4,1.6,0.4c0.6,0,1.2-0.1,1.6-0.3C275.8,448.1,276.3,447.8,276.7,447.5z"/>
	</g>
</g>
</svg>
